<svg width="55" height="55" viewBox="0 0 55 55" fill="none" xmlns="http://www.w3.org/2000/svg">
<g clip-path="url(#clip0_1_85)">
<path d="M52.1983 48.7468C51.9403 48.588 51.6668 48.4455 51.3849 48.3362C50.788 48.1049 50.3779 47.684 50.2282 47.082C50.0093 46.1992 49.3253 45.8096 48.584 45.7127C47.1585 45.5268 46.2687 44.5793 45.5091 43.5869C44.9425 42.8463 44.7283 41.8295 45.0796 40.8348C45.1606 40.6051 45.1672 40.42 45.0746 40.1516C44.9583 39.8158 45.0878 39.3897 45.1303 39.0046C45.5479 35.2272 47.0377 31.851 49.0135 28.6579C49.2003 28.3561 49.387 28.0547 49.5755 27.7545C50.0601 26.9825 50.2596 26.1489 50.3735 25.2336C50.6144 23.2977 50.6869 21.3346 51.2764 19.4436C51.8857 17.4891 51.8415 15.4969 51.4851 13.4842C51.3011 12.4445 51.343 11.3665 51.2353 10.3106C50.9889 7.88852 50.423 5.54744 49.2408 3.39918C48.714 2.44201 48.099 1.53184 47.4927 0.620715C47.2429 0.245329 46.9474 -0.151228 46.3794 0.0579207C46.0808 0.167954 45.6834 0.92822 45.7079 1.3412C45.7148 1.45816 45.7729 1.57665 45.7605 1.68934C45.7346 1.9264 45.6784 2.16004 45.6334 2.39511C45.5665 2.74714 45.4785 3.09699 45.4371 3.45177C45.3988 3.77988 45.4084 4.11416 45.3999 4.44568C45.3902 4.83265 45.362 5.22076 45.3817 5.60621C45.4143 6.24609 45.4561 6.8593 45.1361 7.4763C44.9634 7.80982 45.0602 8.27388 44.9827 8.66854C44.9011 9.08493 44.7476 9.48662 44.6411 9.89837C44.4808 10.5166 44.3041 11.1328 44.1883 11.7599C43.986 12.851 43.8575 13.9566 43.6382 15.0442C43.3519 16.4646 42.9987 17.8715 42.6919 19.288C42.5606 19.8942 42.485 20.5125 42.3615 21.1205C42.3189 21.3302 42.1992 21.523 42.1295 21.7283C42.0098 22.082 41.8998 22.4387 41.7914 22.7958C41.7724 22.8586 41.7998 22.9392 41.7731 22.996C41.4219 23.739 41.0631 24.478 40.7095 25.2198C40.5174 25.6226 40.3299 26.0282 40.144 26.4338C40.1092 26.5097 40.0986 26.5969 40.063 26.6724C39.3139 28.2496 38.5151 29.8061 37.8245 31.4085C37.0622 33.1772 36.5458 35.0159 36.3189 36.9507C36.0873 38.9223 35.7007 40.8772 35.3327 42.8304C35.2196 43.4303 34.9592 44.0055 34.737 44.5804C34.5936 44.9515 34.0677 45.1494 33.6579 45.0537C31.4872 44.547 29.3091 43.9993 27.071 44.0381C25.7308 44.0613 24.3979 44.3952 23.0581 44.5618C19.004 45.0654 14.9508 45.5744 10.893 46.0442C8.03398 46.3753 5.16913 46.437 2.30968 46.0094C2.15977 45.9869 2.00759 45.9783 1.85569 45.974C1.81192 45.9729 1.76701 46.0085 1.61169 46.0749C1.82939 46.2286 1.96221 46.3859 2.12455 46.4269C2.8419 46.607 3.56552 46.7658 4.29142 46.9092C4.89912 47.0293 5.52628 47.0692 6.1224 47.2291C7.49435 47.5979 8.85786 47.4515 10.2348 47.2919C11.3841 47.1587 12.5403 47.0528 13.6958 47.0223C14.1335 47.0107 14.5712 47.285 15.0202 47.3538C15.5087 47.429 16.0102 47.4277 16.5065 47.4406C17.0731 47.4553 17.6406 47.4452 18.2073 47.4518C18.8135 47.4592 19.4321 47.3987 20.0224 47.5013C20.9783 47.6679 21.9165 47.9406 22.8605 48.1738C23.8021 48.4066 24.7411 48.6513 25.6839 48.8811C26.3489 49.0433 27.0178 49.1916 27.6865 49.3385C27.7813 49.3594 27.9038 49.3729 27.9828 49.3315C28.3481 49.139 28.5499 49.2731 28.6327 49.6979C29.0565 49.5696 29.4389 49.4539 29.8215 49.3381C29.851 49.3826 29.8808 49.4271 29.9102 49.4717C28.2884 50.5598 26.6956 51.6946 25.0367 52.7226C23.3664 53.7573 21.4595 54.2105 19.5305 54.5707C19.5395 54.6513 19.5484 54.7318 19.5573 54.8128C19.9877 54.8772 20.437 55.0537 20.8441 54.9837C21.8427 54.8117 22.8211 54.5243 23.8084 54.2868C24.0056 54.2396 24.171 54.1442 24.3697 54.3964C24.477 54.5328 24.8427 54.5072 25.0863 54.4867C25.691 54.4355 26.2906 54.3224 26.8952 54.2793C27.2752 54.2523 27.6613 54.3072 28.0448 54.3232C28.1943 54.3293 28.3802 54.3886 28.4887 54.3232C29.3893 53.7766 30.3926 53.9815 31.3435 53.9688C32.8754 53.9482 34.4124 54.0342 35.9421 54.1439C37.4354 54.2508 38.8449 53.9854 40.2056 53.3997C42.0219 52.6177 43.8769 51.9716 45.8117 51.5289C46.8963 51.2806 47.987 51.0102 48.9245 50.2866C49.7638 49.639 50.7663 49.6242 51.768 49.9899C52.2661 50.172 52.7782 50.3161 53.3882 50.5105C53.2236 49.6718 52.8228 49.1303 52.1983 48.7468Z" fill="#05293C"/>
</g>
<defs>
<clipPath id="clip0_1_85">
<rect width="55" height="55" fill="white"/>
</clipPath>
</defs>
</svg>
