<svg width="27" height="27" viewBox="0 0 27 27" fill="none" xmlns="http://www.w3.org/2000/svg">
<g clip-path="url(#clip0_1_93)">
<path d="M25.6248 23.9303C25.4981 23.8523 25.3639 23.7823 25.2255 23.7287C24.9325 23.6151 24.7311 23.4085 24.6577 23.113C24.5502 22.6796 24.2144 22.4884 23.8505 22.4408C23.1507 22.3495 22.7139 21.8844 22.341 21.3972C22.0628 21.0336 21.9577 20.5345 22.1302 20.0462C22.1699 19.9334 22.1732 19.8425 22.1277 19.7108C22.0706 19.5459 22.1342 19.3368 22.1551 19.1477C22.3601 17.2934 23.0914 15.636 24.0614 14.0684C24.153 13.9203 24.2447 13.7723 24.3373 13.625C24.5751 13.246 24.6731 12.8368 24.729 12.3874C24.8472 11.437 24.8828 10.4734 25.1722 9.54502C25.4713 8.58554 25.4497 7.60756 25.2747 6.61951C25.1844 6.10913 25.2049 5.57991 25.152 5.06156C25.0311 3.87255 24.7533 2.72329 24.1729 1.66869C23.9143 1.1988 23.6124 0.751993 23.3148 0.304714C23.1922 0.120434 23.0471 -0.0742393 22.7683 0.0284338C22.6217 0.0824502 22.4266 0.455671 22.4386 0.658408C22.442 0.715826 22.4705 0.773991 22.4645 0.829312C22.4517 0.945687 22.4241 1.06038 22.402 1.17578C22.3692 1.3486 22.326 1.52034 22.3057 1.69451C22.2869 1.85558 22.2916 2.01968 22.2874 2.18243C22.2826 2.37239 22.2688 2.56292 22.2785 2.75214C22.2945 3.06626 22.315 3.36729 22.1579 3.67018C22.0731 3.83391 22.1206 4.06172 22.0826 4.25546C22.0425 4.45988 21.9672 4.65707 21.9149 4.8592C21.8362 5.1627 21.7495 5.46522 21.6926 5.77305C21.5933 6.30869 21.5302 6.85142 21.4226 7.38534C21.282 8.08261 21.1086 8.77327 20.958 9.46868C20.8935 9.76626 20.8565 10.0698 20.7958 10.3683C20.7749 10.4712 20.7162 10.5658 20.682 10.6666C20.6232 10.8402 20.5692 11.0153 20.5159 11.1907C20.5066 11.2215 20.5201 11.2611 20.507 11.289C20.3346 11.6537 20.1584 12.0165 19.9849 12.3806C19.8905 12.5784 19.7985 12.7775 19.7072 12.9766C19.6901 13.0139 19.685 13.0566 19.6675 13.0937C19.2997 13.868 18.9076 14.6321 18.5686 15.4187C18.1944 16.287 17.9409 17.1896 17.8295 18.1395C17.7158 19.1073 17.526 20.067 17.3453 21.0258C17.2898 21.3203 17.162 21.6027 17.0529 21.8849C16.9825 22.0671 16.7243 22.1643 16.5232 22.1173C15.4576 21.8685 14.3883 21.5997 13.2896 21.6187C12.6316 21.6301 11.9773 21.794 11.3196 21.8758C9.32942 22.123 7.33967 22.3729 5.34764 22.6035C3.94414 22.7661 2.53776 22.7963 1.13403 22.5864C1.06044 22.5754 0.985729 22.5712 0.911159 22.5691C0.889674 22.5685 0.867629 22.586 0.791382 22.6186C0.89825 22.694 0.963451 22.7713 1.04315 22.7914C1.3953 22.8798 1.75053 22.9578 2.10688 23.0281C2.40521 23.0871 2.71309 23.1067 3.00573 23.1852C3.67923 23.3662 4.34859 23.2944 5.02456 23.216C5.58873 23.1506 6.15634 23.0987 6.72359 23.0837C6.93844 23.078 7.15334 23.2126 7.37374 23.2464C7.61353 23.2833 7.85975 23.2827 8.10336 23.289C8.38155 23.2962 8.66011 23.2913 8.93831 23.2945C9.23589 23.2981 9.53957 23.2684 9.82937 23.3188C10.2986 23.4006 10.7592 23.5345 11.2226 23.6489C11.6848 23.7632 12.1458 23.8834 12.6086 23.9962C12.9351 24.0758 13.2635 24.1486 13.5917 24.2207C13.6383 24.231 13.6984 24.2376 13.7372 24.2173C13.9165 24.1228 14.0156 24.1886 14.0563 24.3972C14.2643 24.3342 14.452 24.2774 14.6398 24.2205C14.6543 24.2424 14.6689 24.2642 14.6834 24.2861C13.8872 24.8202 13.1053 25.3774 12.2909 25.882C11.471 26.3899 10.5348 26.6124 9.5879 26.7893C9.59228 26.8288 9.59666 26.8683 9.60104 26.9081C9.81231 26.9397 10.0329 27.0264 10.2327 26.992C10.7229 26.9075 11.2033 26.7665 11.688 26.6499C11.7848 26.6267 11.866 26.5799 11.9635 26.7037C12.0162 26.7707 12.1957 26.7581 12.3153 26.748C12.6121 26.7229 12.9065 26.6674 13.2033 26.6462C13.3898 26.6329 13.5794 26.6599 13.7676 26.6678C13.841 26.6707 13.9323 26.6999 13.9856 26.6678C14.4277 26.3994 14.9202 26.5 15.387 26.4938C16.139 26.4837 16.8935 26.5259 17.6445 26.5797C18.3776 26.6322 19.0695 26.5019 19.7375 26.2144C20.6291 25.8305 21.5397 25.5133 22.4896 25.296C23.022 25.1741 23.5575 25.0414 24.0176 24.6862C24.4297 24.3683 24.9218 24.361 25.4135 24.5405C25.6581 24.6299 25.9095 24.7006 26.2089 24.7961C26.1282 24.3843 25.9314 24.1185 25.6248 23.9303Z" fill="#05293C"/>
</g>
<defs>
<clipPath id="clip0_1_93">
<rect width="27" height="27" fill="white"/>
</clipPath>
</defs>
</svg>
