<svg width="108" height="108" viewBox="0 0 108 108" fill="none" xmlns="http://www.w3.org/2000/svg">
<path d="M107.906 94.827C107.688 94.179 107.123 93.7092 106.446 93.6175L64.7998 87.8718V83.2314L98.7386 88.1814C99.4425 88.2768 100.162 87.9511 100.539 87.3318C100.913 86.7127 100.88 85.9297 100.458 85.3445L97.304 80.9976C82.3155 60.3481 74.7572 49.9333 64.7998 26.6308V20.1957L80.647 23.3655C81.4589 23.5275 82.2796 23.1134 82.6323 22.361C82.9833 21.6086 82.7745 20.714 82.1248 20.1955L64.1247 5.79569C63.5848 5.3618 62.8414 5.27911 62.2204 5.5778C61.5958 5.87669 61.1999 6.50845 61.1999 7.19969V13.2441C44.3556 21.101 22.3597 37.8465 10.8883 73.245C10.7244 73.7489 10.7911 74.2999 11.0719 74.7498C11.3509 75.1998 11.8171 75.5041 12.3409 75.5813L61.1999 82.7057V87.3748L2.04651 79.2156C1.52444 79.1436 1.00975 79.3002 0.617412 79.6421C0.225069 79.9842 0 80.4793 0 80.9995C0 92.91 9.68938 102.599 21.5999 102.599H100.8C101.277 102.599 101.736 102.41 102.072 102.072L107.472 96.6721C107.956 96.1877 108.124 95.4731 107.906 94.827ZM61.1997 74.8777C55.1914 62.1392 58.1865 41.5507 61.1997 28.1337V74.8777Z" fill="#05293C"/>
</svg>
