<svg width="41" height="41" viewBox="0 0 41 41" fill="none" xmlns="http://www.w3.org/2000/svg">
<path d="M0.0357132 35.9991C0.118435 35.7531 0.332962 35.5748 0.589931 35.5399L16.4001 33.3587V31.5971L3.5159 33.4763C3.24868 33.5124 2.97537 33.3888 2.83259 33.1537C2.69046 32.9187 2.70279 32.6214 2.86334 32.3993L4.0605 30.749C9.75059 22.9099 12.6199 18.9561 16.4001 10.1098V7.66686L10.384 8.87018C10.0758 8.93168 9.76421 8.77449 9.63032 8.48885C9.49707 8.20322 9.57634 7.86361 9.82298 7.66678L16.6563 2.20018C16.8613 2.03546 17.1435 2.00407 17.3793 2.11746C17.6164 2.23093 17.7667 2.47077 17.7667 2.73318V5.02781C24.1613 8.01055 32.5116 14.3676 36.8665 27.8059C36.9287 27.9972 36.9034 28.2064 36.7968 28.3772C36.6909 28.548 36.5139 28.6636 36.315 28.6929L17.7667 31.3975V33.17L40.2231 30.0725C40.4213 30.0452 40.6167 30.1047 40.7656 30.2345C40.9146 30.3643 41 30.5523 41 30.7498C41 35.2714 37.3216 38.9497 32.8 38.9497H2.73346C2.5524 38.9497 2.37815 38.878 2.25035 38.7495L0.200356 36.6995C0.0165749 36.5157 -0.0470047 36.2444 0.0357132 35.9991ZM17.7668 28.4257C20.0477 23.5898 18.9107 15.7739 17.7668 10.6803V28.4257Z" fill="#103F57"/>
</svg>
