<svg width="33" height="33" viewBox="0 0 33 33" fill="none" xmlns="http://www.w3.org/2000/svg">
<path d="M15.75 25.9952C17.8211 29.5824 22.408 30.8114 25.9952 28.7404C29.5824 26.6693 30.8114 22.0824 28.7404 18.4952C26.6693 14.908 22.0824 13.6789 18.4952 15.75C14.908 17.8211 13.6789 22.408 15.75 25.9952Z" fill="#E85C4B"/>
<path d="M21.308 2.60998C16.18 -0.612019 12.854 4.20398 12.854 4.20398C12.854 4.20398 9.52801 -0.612019 4.40001 2.60998C-0.727989 5.83198 1.07401 11.549 2.56401 13.91C4.05401 16.271 6.06401 18.795 12.854 22.78C19.645 18.796 21.654 16.266 23.144 13.91C24.634 11.554 26.436 5.83198 21.308 2.60998Z" stroke="#05293C" stroke-width="2"/>
</svg>
