<svg width="29" height="33" viewBox="0 0 29 33" fill="none" xmlns="http://www.w3.org/2000/svg">
<path d="M12.2552 26.183C14.3263 29.7702 18.9132 30.9993 22.5004 28.9282C26.0876 26.8571 27.3167 22.2702 25.2456 18.683C23.1746 15.0958 18.5876 13.8668 15.0004 15.9378C11.4132 18.0089 10.1842 22.5958 12.2552 26.183Z" fill="#E85C4B"/>
<path d="M22.212 9.99998L11.554 0.23298C11.3868 0.0803552 11.1678 -0.00275931 10.9414 0.000585451C10.7151 0.00393021 10.4986 0.0934823 10.336 0.25098L0.27 10.02C0.184706 10.1027 0.116867 10.2017 0.0704918 10.3111C0.0241166 10.4205 0.000145909 10.5381 0 10.657V23.691C0 23.8076 0.0229703 23.9231 0.0675964 24.0308C0.112223 24.1385 0.177631 24.2364 0.26009 24.3189C0.342548 24.4013 0.440441 24.4668 0.548178 24.5114C0.655915 24.556 0.771387 24.579 0.888 24.579H21.612C21.7286 24.579 21.8441 24.556 21.9518 24.5114C22.0596 24.4668 22.1575 24.4013 22.2399 24.3189C22.3224 24.2364 22.3878 24.1385 22.4324 24.0308C22.477 23.9231 22.5 23.8076 22.5 23.691V10.658C22.5005 10.5343 22.4751 10.4119 22.4255 10.2986C22.3759 10.1853 22.3032 10.0836 22.212 9.99998ZM20.724 22.8C10.803 22.733 8.499 22.639 1.777 22.8V11.033L10.977 2.10798L20.729 11.048V22.8H20.724Z" fill="#05293C"/>
</svg>
