<svg width="375" height="467" viewBox="0 0 375 467" fill="none" xmlns="http://www.w3.org/2000/svg">
<path d="M-22.5719 46.8695C63.9511 32.1754 85.7921 6.80885 116.318 12.7998C175.792 19.0803 129.473 127.928 135 147.883C144.742 184.165 183.025 78.4579 166.635 0.435053C196.894 4.35171 237.774 2.26567 252.687 32.8235C277.023 84.1009 220.376 139.029 244.254 206.391C250.571 194.826 280.042 58.41 279.367 51.5383C394.989 43.2291 340.901 294.773 346.364 297.867C372.917 282.86 396.759 168.254 380.139 132.643C480.62 101.818 551.349 339.444 375.858 408.789C399.404 525.956 132.563 603.656 74.7466 485.828C91.608 482.398 176.819 464.076 179.456 440.332C180.589 431.12 156.797 427.404 131.699 443.091C69.5972 481.904 -28.0512 418.478 -47.5224 314.915C-30.7757 315.506 53.2129 317.163 61.1726 293.789C68.6228 273.012 -55.8766 302.492 -63.0334 263.348C-66.2171 245.201 -58.2574 221.827 -60.002 206.659C-40.6699 204.387 -1.64952 225.524 24.7507 204.422C19.7205 178.499 -44.949 205.569 -57.7731 178.117C-59.7343 174.362 -52.003 55.92 -22.5719 46.8695Z" fill="#05293C"/>
</svg>
