<svg width="25" height="25" viewBox="0 0 25 25" fill="none" xmlns="http://www.w3.org/2000/svg">
<path d="M24.697 23.026L18.738 17.067C20.4351 14.9947 21.2705 12.3494 21.0714 9.67832C20.8722 7.00726 19.6538 4.51499 17.6683 2.71727C15.6827 0.919551 13.082 -0.0460025 10.4044 0.0204256C7.72674 0.0868536 5.17712 1.18018 3.28316 3.07414C1.38919 4.96811 0.295868 7.51773 0.22944 10.1954C0.163012 12.873 1.12857 15.4737 2.92629 17.4593C4.724 19.4448 7.21627 20.6632 9.88733 20.8623C12.5584 21.0615 15.2038 20.226 17.276 18.529L23.235 24.483C23.3307 24.579 23.4443 24.6552 23.5694 24.7073C23.6946 24.7594 23.8287 24.7863 23.9642 24.7865C24.0998 24.7868 24.234 24.7603 24.3593 24.7086C24.4846 24.657 24.5985 24.5812 24.6945 24.4855C24.7905 24.3898 24.8667 24.2762 24.9188 24.1511C24.9709 24.0259 24.9978 23.8918 24.998 23.7563C24.9983 23.6207 24.9718 23.4865 24.9202 23.3612C24.8685 23.2359 24.7927 23.122 24.697 23.026V23.026ZM10.66 18.812C9.00482 18.8114 7.38698 18.32 6.01105 17.4C4.63513 16.4799 3.56292 15.1725 2.93001 13.6431C2.2971 12.1137 2.13191 10.431 2.45533 8.80771C2.77875 7.18443 3.57626 5.6935 4.747 4.52345C5.91775 3.35341 7.40915 2.55679 9.03263 2.23434C10.6561 1.91189 12.3387 2.07809 13.8678 2.71191C15.3968 3.34574 16.7035 4.41872 17.6228 5.7952C18.542 7.17167 19.0324 8.78981 19.032 10.445C19.0294 12.6641 18.1463 14.7915 16.5767 16.3602C15.0071 17.9289 12.8791 18.8107 10.66 18.812Z" fill="#B0B0B0"/>
</svg>
