<svg width="256" height="604" viewBox="0 0 256 604" fill="none" xmlns="http://www.w3.org/2000/svg">
<path fill-rule="evenodd" clip-rule="evenodd" d="M131.9 115.913L132.535 115.862L136.412 106.883L131.9 115.913ZM140.094 104.489L133.255 115.801L135.09 115.646L140.094 104.489ZM136.519 115.527L136.808 115.503C137.141 115.551 137.467 115.606 137.799 115.655C141.525 110.446 147.381 102.196 146.945 102.415C146.514 102.631 140.435 110.453 136.519 115.527ZM0.240814 71.5377C0.240814 71.5377 9.9007 46.0389 75.2184 55.8226C118.33 62.2788 153.994 93.1749 173.268 113.442L178.456 110.155L173.27 111.512L179.492 107.282L171.994 110.474L175.904 108.001L170.655 109.555C170.655 109.555 176.624 105.605 177.143 105.386C176.626 105.579 171.276 107.362 171.276 107.362L176.302 103.292L170.239 107.043L177.898 98.9442L168.52 104.29L170.637 102.016C170.637 102.016 170.585 102.053 170.549 102.078L175.192 98.2242L170.022 101.237C170.394 100.911 170.637 100.699 170.637 100.699L165.261 104.01L175.192 96.4306L168.273 100.489C167.691 100.738 166.857 101.082 165.931 101.458L173.351 95.392L163.781 101.773L163.746 101.721C165.449 100.303 171.653 95.1434 174.14 93.1988C174.838 92.7293 175.245 92.4401 175.184 92.4401C175.131 92.4401 174.733 92.7366 174.14 93.1988C171.904 94.7015 166.688 98.04 164.101 99.69L167.336 96.2409L175.543 89.8068L161.456 98.4267C161.415 98.3715 161.377 98.3181 161.338 98.2628L168.603 91.1235C168.603 91.1235 165.432 93.1694 162.881 94.9335C166.393 92.0148 171.736 87.4258 172.918 86.5033C173.076 86.3983 173.181 86.3265 173.15 86.3357C173.128 86.3431 173.043 86.4038 172.918 86.5033C171.175 87.6579 159.088 95.1232 159.088 95.1232L169.321 86.4554L157.93 93.604L157.849 93.499C160.526 91.2487 169.832 83.4336 170.606 82.8885C169.803 83.4483 159.764 90.328 156.919 92.2781C156.894 92.2449 156.87 92.2118 156.844 92.1805L167.167 82.8645L156.054 91.1456C155.929 90.9835 155.804 90.8123 155.677 90.6502L162.619 84.4206L153.626 88.0796L158.672 83.1039L152.58 86.8053L158.672 82.2661L151.058 84.9822L151.89 84.3801L156.676 80.2312L154.694 81.1796C158.133 79.2148 161.927 77.0621 163.521 76.1984C164.053 75.9406 164.365 75.786 164.295 75.8025C164.239 75.8173 163.954 75.9646 163.521 76.1984C160.935 77.4488 152.457 81.3877 149.242 82.8793C149.22 82.8553 149.2 82.8332 149.18 82.8074L163.702 74.845C163.702 74.845 153.897 79.224 148.23 81.7394C148.06 81.5442 147.889 81.3564 147.72 81.163C152.356 78.0988 160.353 72.8746 162.894 71.267C163.433 70.9484 163.746 70.7588 163.696 70.7753C163.656 70.7901 163.363 70.9687 162.894 71.267C160.018 72.963 150.124 78.6439 147.05 80.408C147.006 80.3583 146.961 80.3086 146.915 80.2589L160.128 68.9799L145.26 78.3898C145.236 78.3658 145.214 78.3382 145.192 78.3143L159.269 67.1845L144.551 76.6404C144.551 76.6404 153.306 69.862 157.685 66.6136C159.287 65.5419 160.285 64.8513 160.108 64.9103C159.941 64.9655 159.002 65.6376 157.685 66.6136C153.607 69.3427 145.638 74.5338 143.165 76.1414C143.13 76.1045 143.097 76.0677 143.062 76.0309L156.518 63.7133L141.416 74.2759C141.042 73.8819 140.661 73.4602 140.29 73.0735L140.28 73.0587L147.983 67.783L137.983 70.6925C137.609 70.3131 137.235 69.9283 136.867 69.5544L145.188 63.6341L133.406 66.0888C133.065 65.75 132.725 65.413 132.386 65.0778L141.359 58.8463L130.228 62.9528L141.359 56.2922L128.052 60.8185C127.859 60.6289 127.666 60.4392 127.476 60.2514L136.893 53.5871L125.186 58.0029C125.077 57.8961 124.976 57.793 124.869 57.688C128.582 55.8097 137.204 51.4621 140.667 49.7919C141.681 49.3517 142.263 49.0903 142.158 49.1105C142.064 49.1289 141.497 49.3923 140.667 49.7919C137.178 51.3092 128.457 54.9793 124.018 56.8428C123.963 56.7876 123.908 56.7342 123.853 56.6789L146.107 45.2803L122.312 55.1431C122.246 55.0769 122.183 55.0124 122.117 54.9461C126.609 52.6038 135.589 47.9246 137.802 46.8418C138.18 46.6761 138.38 46.584 138.327 46.5969C138.286 46.608 138.078 46.7074 137.802 46.8418C135.372 47.908 125.158 52.206 121.097 53.913C121.067 53.8817 121.038 53.8523 121.008 53.8228L133.54 47.5545L120.093 52.8929C119.821 52.6093 119.556 52.311 119.289 52.02L132.743 46.398L117.098 49.4788H117.096L130.51 43.1442L113.512 44.4221L120.618 41.5955H111.798V41.5937L125.084 35.8649L110.154 38.5405C110.108 38.4521 110.064 38.3637 110.019 38.2753L125.084 31.0771L108.552 35.2627C108.454 35.0509 108.372 34.8373 108.276 34.6256L123.729 30.079L107.654 33.1837C107.633 33.1377 107.613 33.0916 107.593 33.0437C111.376 31.8431 122.942 28.1768 126.434 27.129C127.108 26.9522 127.487 26.8472 127.437 26.8472C127.393 26.8472 127.032 26.9503 126.434 27.129C122.857 28.0681 110.706 31.0955 107.136 31.9849C107.129 31.9683 107.12 31.9481 107.112 31.9315L120.738 27.6851L106.562 30.6222C106.516 30.5062 106.475 30.392 106.429 30.2742L124.565 23.7351L105.835 28.7089C105.829 28.6924 105.822 28.6776 105.816 28.6611L122.892 22.7187L105.424 27.6354C105.362 27.4604 105.29 27.2855 105.225 27.1124L122.174 20.0246L104.771 25.827C104.752 25.77 104.734 25.7166 104.715 25.6595L114.754 21.3431L103.804 22.9599C103.776 22.8752 103.743 22.785 103.718 22.6984L120.497 18.5293L102.985 20.3027C102.972 20.2566 102.957 20.2106 102.944 20.1645L123.729 16.5534L102.53 18.7853C102.484 18.6251 102.427 18.4557 102.383 18.2973L119.022 15.4357L101.03 13.1541L117.746 11.2869L100.021 8.73459H113.278L99.3819 5.54149H108.81L98.8388 2.45151C98.616 1.06673 98.5148 0.274903 98.5148 0.274903C98.5148 0.274903 108.338 -0.960719 121.452 1.80148L124.127 5.22291L123.486 2.24895C126.051 2.85663 128.722 3.62821 131.456 4.58393L133.224 8.57438L132.762 5.05534C133.308 5.2579 133.859 5.46783 134.411 5.68696L136.254 10.8081V6.45117C136.403 6.51378 136.55 6.57823 136.699 6.64268L137.051 10.8081C137.051 10.8081 137.25 9.09183 137.489 6.9852C137.754 7.10489 138.018 7.21354 138.285 7.33692C138.309 9.97757 138.34 12.2444 138.34 12.2444L139.1 7.73467C143.863 10.0034 148.683 12.9055 153.35 16.6492L152.847 21.5014L154.418 17.5441C154.71 17.7891 155.003 18.0413 155.294 18.2918L154.283 22.7776C154.283 22.7776 155.082 20.8735 155.938 18.8424C156.303 19.1628 156.664 19.4869 157.024 19.8184C156.822 21.4444 156.676 22.7776 156.676 22.7776C156.676 22.7776 157.212 21.8458 157.91 20.6617C158.471 21.1958 159.037 21.7187 159.593 22.2804C159.21 23.8972 158.911 25.1715 158.911 25.1715L160.683 23.4405C165.055 28.0571 169.168 33.5391 172.793 40.1168C172.843 40.2089 172.887 40.301 172.936 40.3912L171.675 43.1442L173.588 41.6213C173.794 42.008 173.999 42.3947 174.201 42.7814L172.793 44.4829L174.389 43.1331C174.595 43.5309 174.812 43.9213 175.015 44.3209L173.27 46.398L175.339 44.9691C175.645 45.5749 175.935 46.1863 176.232 46.7939L174.387 49.2707L176.701 47.757C180.232 55.121 183.165 62.6747 185.595 70.1658L184.121 74.0071L186.177 71.9686C186.328 72.4474 186.47 72.9262 186.617 73.4068L184.918 76.5612C184.918 76.5612 185.849 75.5226 186.906 74.3514C187.098 74.9886 187.295 75.6257 187.479 76.2592C186.853 77.7361 186.354 78.9551 186.354 78.9551C186.354 78.9551 186.921 78.1467 187.7 77.04C188.003 78.0951 188.307 79.1503 188.592 80.1981C188.119 81.4411 187.79 82.3066 187.79 82.3066L188.963 81.616C189.174 82.4115 189.384 83.2052 189.583 83.9934L188.108 85.9766L189.719 84.5163C189.992 85.6028 190.248 86.68 190.502 87.7555L189.544 92.6795L191.198 90.7902C193.418 100.762 194.85 110.107 195.776 118.103C197.914 113.127 200.456 107.675 203.415 102.049C203.928 103.868 204.383 105.446 204.383 105.446L205.944 97.3882C206.579 96.252 207.235 95.1139 207.905 93.9722L208.851 98.8853L209.674 91.0185C211.346 88.2932 213.113 85.5789 214.976 82.9051C215.42 83.9344 215.808 84.6968 215.873 84.3801C215.924 84.1167 216.048 82.8111 216.188 81.1925C219.119 77.11 222.278 73.1471 225.673 69.4237C226.245 70.8324 226.722 72.0183 226.722 72.0754C226.722 72.1454 226.88 70.0774 227.061 67.9303C227.33 67.6467 227.596 67.3594 227.869 67.0777C228.029 69.2635 228.232 71.6574 228.476 72.0349C228.764 72.4787 228.707 69.107 228.615 66.3208C228.769 66.1643 228.924 66.0078 229.08 65.8512L229.912 70.0185V65.0226C230.014 64.925 230.117 64.8274 230.218 64.7298L230.71 69.0609V64.2565C231.004 63.9748 231.297 63.6912 231.595 63.4132L232.784 67.6227L234.128 61.1408C241.868 54.4268 250.611 49.1473 260.391 46.3796L261.344 50.2283L262.968 45.7204C263.544 45.5767 264.126 45.4257 264.699 45.295L265.174 48.3132L266.324 44.9378C313.552 35.0528 338.888 69.6981 338.888 69.6981C338.888 69.6981 338.516 69.9632 337.843 70.4254L313.04 51.9832C313.04 51.9832 326.984 63.5255 336.44 71.3738C336.274 71.4843 336.099 71.6003 335.921 71.7182C327.13 65.1349 315.196 56.2149 315.912 56.9312C316.711 57.7304 327.468 67.6743 333.531 73.2705C333.431 73.335 333.343 73.392 333.242 73.4565L329.333 71.4143L312.243 59.8039L321.658 67.4036L305.275 58.8408L328.164 76.5888C327.743 76.843 327.308 77.0989 326.866 77.3604L305.275 66.4424L322.483 79.8887C322.146 80.0784 321.8 80.2699 321.454 80.4633C316.141 78.0988 307.024 74.0163 302.627 71.9042C301.411 71.116 300.532 70.6133 300.208 70.558C299.787 70.4881 300.801 71.0258 302.627 71.9042C306.241 74.241 312.917 79.1208 317.575 82.5754C317.028 82.8682 316.479 83.1592 315.914 83.4538L296.408 74.9923L310.918 85.9932C310.262 86.3154 309.585 86.6377 308.913 86.9618L291.342 71.3738L307.167 87.7978C306.843 87.9507 306.508 88.1035 306.179 88.2563L294.693 78.3161C294.693 78.3161 299.857 84.2419 304.168 89.1881C304.028 89.2507 303.885 89.3133 303.747 89.376C298.264 83.7632 291.138 76.5888 291.342 77.2002C291.5 77.6771 296.127 82.7596 300.615 87.5013C294.707 82.1298 287.94 76.2979 288.31 77.04C288.667 77.7545 295.239 84.9878 300.497 90.8141C300.214 90.9357 299.917 91.0572 299.632 91.1787C293.577 85.2603 286.22 78.0491 287.352 79.5923C288.315 80.9052 293.925 86.7132 298.592 91.6189C298.076 91.8361 297.572 92.0553 297.049 92.2707L286.911 83.8608L293.085 93.8599C292.929 93.9225 292.769 93.9796 292.61 94.0404L286.911 90.5103L289.519 95.1987C289.245 95.2999 288.969 95.3975 288.693 95.4988L278.046 85.7593L286.178 96.3827C286.009 96.4416 285.839 96.4987 285.672 96.5577L275.13 89.8768L281.448 97.9461C281.31 97.9903 281.159 98.0456 281.019 98.0898C276.161 92.8195 266.019 80.7966 266.138 81.6676C266.256 82.5294 275.308 94.2669 278.851 98.8171C278.823 98.8263 278.795 98.8355 278.77 98.8447C275.034 94.5597 265.601 84.2235 266.136 85.9766C266.536 87.2859 272.768 94.7401 276.763 99.5169C276.595 99.574 276.435 99.6237 276.268 99.6826C270.551 93.766 260.462 83.2899 260.707 83.9013C260.785 84.0983 261.797 85.3726 263.283 87.1865C266.293 90.8675 271.236 96.7529 274.29 100.379C273.374 100.708 272.433 101.071 271.501 101.421C267.416 96.53 260.582 88.1937 260.702 89.0095C260.801 89.6835 266.3 96.7473 270.33 101.859C270.218 101.903 270.108 101.942 269.995 101.984C265.14 96.5356 258.321 89.0463 259.75 91.2432C260.816 92.8858 263.901 97.2666 266.65 101.139L259.365 95.578L265.071 103.92C264.551 104.132 264.03 104.351 263.511 104.568L255.882 98.8853L260.01 106.056L249.549 101.911L255.221 108.186L241.632 101.279L246.079 106.837C240.981 102.485 235.018 97.3513 235.018 97.3513C235.018 97.3513 243 105.205 247.71 109.757C242.446 105.097 232.937 97.1322 233.423 98.1063C233.907 99.0768 243.345 108.035 247.2 112.035C246.994 112.136 246.791 112.24 246.588 112.343C242.192 108.721 232.757 100.172 231.424 98.9552C231.4 98.9331 231.369 98.9018 231.348 98.8853C231.212 98.7619 231.249 98.7969 231.424 98.9552C232.648 100.102 240.485 108.269 245.057 113.111C244.921 113.181 244.786 113.247 244.652 113.315C239.668 108.748 231.477 101.277 231.827 102.097C232.168 102.889 239.234 110.155 243.037 114.125C242.892 114.201 242.743 114.271 242.599 114.346C237.647 110.129 227.978 101.793 228.955 102.894C229.819 103.865 236.441 111.153 240.445 115.486C240.393 115.514 240.346 115.541 240.294 115.567C235.476 111.068 226.976 103.434 227.679 104.489C228.637 105.927 238.368 116.14 237.731 115.821C237.516 115.714 237.542 116.243 237.665 116.987C237.1 117.294 236.527 117.596 235.968 117.906L225.604 106.404L230.794 114.9L227.068 111.413L232.564 119.804C232.387 119.906 232.205 120.007 232.028 120.108L224.491 116.619L228.051 122.454L215.987 113.947L224.491 124.655L215.987 120.915L220 127.57L211.237 123.13L215.987 130.098H207.121L209.558 134C231.08 122.27 269.701 108.352 308.254 130.024C328.783 141.565 340.926 155.746 348.084 169.253C346.144 169.365 344.691 169.45 344.691 169.45L348.94 170.898C349.423 171.859 349.874 172.811 350.308 173.763L348.189 173.586C348.189 173.586 349.185 173.934 350.617 174.431C350.988 175.262 351.332 176.083 351.667 176.904C350.279 176.729 349.303 176.608 349.303 176.608L351.982 177.674C352.333 178.558 352.661 179.435 352.974 180.307L349.303 179.788C349.303 179.788 351.102 180.317 353.219 180.985C354.646 185.062 355.669 188.964 356.389 192.597L350.415 191.082L357.022 196.203C358.849 208.055 357.556 216.205 357.556 216.205C357.556 216.205 353.631 215.034 347.561 212.98C348.975 208.053 350.838 201.363 350.536 201.363C350.247 201.363 345.612 206.756 341.972 211.041H341.97C344.332 206.697 349.922 196.107 349.922 196.107L339.91 210.303C339.759 210.248 339.615 210.198 339.463 210.143C342.175 204.696 347.988 192.956 347.53 193.415C347.243 193.702 344.249 198.17 341.206 202.751L342.559 197.693C342.559 197.693 338.391 204.108 335.252 208.594C334.396 208.274 333.501 207.924 332.623 207.587C336.278 201.458 343.682 189.003 343.344 189.229C343.02 189.447 335.383 201.144 331.497 207.156C331.386 207.112 331.279 207.073 331.169 207.029C334.809 199.818 342.349 184.327 342 184.445C341.663 184.558 333.779 199.184 329.843 206.515C329.72 206.467 329.595 206.414 329.471 206.368L338.888 184.445C338.888 184.445 330.355 199.352 326.721 205.263C326.145 205.031 325.581 204.812 325.001 204.574C327.838 199.553 332.187 192.106 332.187 192.106L322.639 203.589C322.374 203.479 322.111 203.37 321.844 203.258C324.409 198.694 328.199 191.894 327.879 192.106C327.535 192.336 322.984 198.96 320.456 202.659C320.237 202.565 320.016 202.469 319.797 202.376L323.889 191.308L317.225 201.243C317.092 201.184 316.958 201.123 316.824 201.064L321.656 190.351L316.881 195.927C321.319 187.859 326.909 177.593 326.454 177.867C325.911 178.193 316.546 191.52 311.512 198.569C311.313 198.473 311.118 198.376 310.921 198.28C315.936 189.541 326.603 171.288 326.603 171.288L309.344 197.51C309.178 197.429 309.01 197.35 308.846 197.267C312.42 190.154 319.291 176.486 319.718 175.645C319.72 175.641 319.725 175.628 319.727 175.625C319.755 175.571 319.743 175.591 319.718 175.645C319.224 176.617 312.042 189.539 307.979 196.846C307.681 196.695 307.368 196.553 307.072 196.4L316.391 176.626L303.307 194.404C303.093 194.288 302.896 194.164 302.683 194.047L316.888 171.288C316.888 171.288 304.154 188.732 300.799 192.971C300.729 192.931 300.658 192.89 300.588 192.85C303.642 187.944 317.485 167.434 317.485 167.434C317.485 167.434 304.748 184.521 299.286 192.104C299.257 192.087 299.225 192.071 299.196 192.054C303.45 185.04 311.956 170.242 311.956 170.242C311.956 170.242 302.521 185.926 298.546 191.655C298.334 191.527 298.141 191.397 297.933 191.268C301.504 184.725 312.376 167.399 310.84 168.747C309.448 169.968 300.941 183.539 296.646 190.456C296.539 190.388 296.431 190.321 296.324 190.253L306.575 170.242L295.076 189.165L303.467 172.796L293.003 188.032C292.841 187.916 292.667 187.8 292.509 187.684C295.022 182.37 299.505 172.796 299.159 172.796C298.774 172.796 292.607 182.504 290.462 186.13C290.42 186.097 290.383 186.062 290.342 186.029C291.622 182.322 294.372 172.796 294.372 172.796L291.169 177.764L302.09 158.431L285.418 181.598C285.346 181.53 285.274 181.462 285.202 181.394C289.519 174.571 297.485 161.95 297.158 162.169C296.769 162.427 286.815 176.486 284.094 180.333C284.072 180.309 284.046 180.287 284.022 180.265L295.812 160.374L282.26 178.49C282.133 178.361 282.004 178.23 281.877 178.099C285.453 172.015 291.515 161.594 290.88 162.02C290.261 162.432 284.666 171.73 281.253 177.464C281.196 177.407 281.139 177.348 281.082 177.289C285.261 169.428 293.266 154.284 292.822 154.394C292.419 154.496 285.749 165.498 281.457 172.638L286.714 159.709L277.976 174.096C277.775 173.89 277.573 173.682 277.37 173.476L281.448 160.346L274.576 170.658C274.423 170.507 274.268 170.356 274.114 170.207C276.098 165.8 279.173 158.945 278.736 159.709C278.306 160.464 275.181 165.876 273.199 169.312C273.061 169.178 272.915 169.047 272.775 168.914L280.172 149.224L270.467 166.789C270.268 166.614 270.073 166.436 269.872 166.261C271.811 160.834 274.699 152.579 274.268 152.687C273.745 152.816 270.006 161.954 268.677 165.241C268.583 165.163 268.491 165.084 268.397 165.005L269.96 153.485L264.82 162.215C264.581 162.04 264.34 161.867 264.095 161.696L268.366 147.592L262.837 155.965C266.094 149.982 270.253 142.136 270.253 142.136L259.905 159.016C259.743 158.921 259.575 158.83 259.411 158.736L270.253 134.21L257.399 157.637C257.355 157.615 257.309 157.595 257.266 157.573L266.665 134.21C266.665 134.21 259.229 150.176 255.871 156.88C255.67 156.785 255.482 156.681 255.28 156.588C257.856 149.365 264.422 132.416 264.422 132.416L253.492 155.821C253.446 155.803 253.4 155.781 253.352 155.763L257.397 138.642C257.397 138.642 253.925 149.398 251.916 155.175C251.782 155.124 251.64 155.079 251.504 155.028C253.485 148.386 257.74 135.243 257.397 136.155C257.057 137.064 252.296 149.067 249.978 154.479C249.722 154.391 249.479 154.291 249.219 154.205V154.07C250.138 149.268 251.973 140.537 251.419 141.537C251.145 142.031 250.245 144.743 249.219 147.973V146.463L246.277 153.328C245.979 153.245 245.694 153.157 245.39 153.08V144.069L243.84 152.722C243.672 152.684 243.503 152.645 243.335 152.608L242.518 140.079L240.531 149.822C240.784 143.104 241.213 131.455 241.106 132.416C240.997 133.392 239.475 145.294 238.644 151.763C238.47 151.737 238.295 151.708 238.116 151.684V140.64C238.116 140.64 237.44 146.677 236.967 151.531C236.872 151.52 236.774 151.511 236.68 151.498C236.433 144.992 235.725 135.556 235.725 135.556C235.725 135.556 235.174 144.786 234.778 151.284C234.648 151.271 234.51 151.264 234.379 151.253V139.891C234.379 139.891 233.85 146.485 233.418 151.175C233.261 151.164 233.107 151.152 232.948 151.139C233.083 146.285 233.285 139.44 232.884 140.042C232.483 140.646 230.999 146.925 230.071 150.975C229.747 150.962 229.434 150.942 229.106 150.931L227.519 142.312L226.704 150.873C226.658 150.873 226.608 150.875 226.562 150.875V142.312L224.874 150.896C224.664 150.897 224.456 150.899 224.242 150.903C223.913 148.319 223.371 144.071 223.371 144.071C223.371 144.071 222.296 147.831 221.394 150.991C220.744 151.019 220.087 151.052 219.42 151.091L217.787 142.152L212.723 151.665C212.607 151.678 212.483 151.695 212.367 151.708C230.723 156.724 267.849 170.863 292.936 207.108C303.743 222.722 308.618 237.581 310.22 250.624C308.85 250.057 307.808 249.591 307.617 249.399C307.344 249.128 308.751 250.854 310.454 252.922C310.54 253.848 310.616 254.765 310.673 255.671L306.978 253.071L310.724 256.597C310.916 260.278 310.861 263.783 310.619 267.09L307.935 263.284L310.463 269.044C310.413 269.569 310.352 270.082 310.293 270.594L308.254 267.114L310.231 271.184C310.144 271.887 310.047 272.57 309.947 273.252C308.614 271.427 307.298 269.578 306.691 268.598C306.475 268.099 306.339 267.823 306.339 267.913C306.339 267.996 306.472 268.243 306.691 268.598C307.248 269.887 308.401 272.8 309.546 275.738C306.985 290.147 301.552 299.034 301.552 299.034C301.552 299.034 300.078 298.054 297.631 296.253L302.988 280.361L295.099 294.351C294.932 294.224 294.772 294.102 294.601 293.97C297.509 287.081 302.294 275.692 301.792 276.531C301.409 277.172 298.334 282.636 295.788 287.556C295.959 286.996 296.127 286.442 296.285 285.925C297.138 284.122 297.721 282.672 297.649 282.277C297.559 281.785 297.012 283.54 296.285 285.925C295.293 288.027 293.941 290.598 292.818 292.58C292.607 292.412 292.399 292.25 292.181 292.075C294.069 287.366 296.885 279.404 296.885 279.404C296.885 279.404 296.408 280.575 295.72 282.289C294.643 284.973 293.054 288.978 291.97 291.906C290.747 290.93 289.449 289.871 288.089 288.724L298.92 273.898L284.341 285.483C284.138 285.302 283.937 285.127 283.731 284.943L291.261 275.574L281.165 282.599C281.117 282.555 281.069 282.509 281.021 282.464L289.586 273.898L279.646 281.166H279.644L285.996 271.025L284.342 272.484L292.697 262.647L275.632 277.172C275.513 277.051 275.395 276.925 275.275 276.802L285.278 266.956L273.961 275.445C273.685 275.154 273.407 274.883 273.131 274.587L285.517 261.689L272.589 274.019C272.195 273.594 271.816 273.136 271.424 272.703L276.185 266.385L289.346 252.832L269.215 270.204C268.99 269.942 268.76 269.699 268.537 269.436L270.689 266.77L284.32 254.029L277.127 258.796L265.903 266.236C265.831 266.144 265.761 266.05 265.689 265.958C269.723 261.908 282.253 249.279 281.448 249.48C280.633 249.685 267.355 259.93 263.423 262.974C263.377 262.912 263.331 262.849 263.285 262.787L278.337 246.607L262.302 258.816L277.14 240.383L259.378 257.039C259.336 256.971 259.293 256.903 259.249 256.835L266.935 247.641L277.648 237.888L269.826 244.182L270.2 243.735L268.738 245.057L258.857 253.01L259.135 252.438L274.962 237.888C274.962 237.888 266.608 244.451 260.772 249.073L261.436 247.71C266.794 242.588 273.679 235.934 273.679 235.934C273.679 235.934 266.148 240.985 260.707 244.641L261.254 243.47C266.346 239.365 272.775 234.174 272.519 234.284C272.324 234.369 267.352 237.954 262.033 241.809L263.259 239.186L256.316 245.956C255.587 246.484 254.89 246.99 254.229 247.471C253.989 246.933 253.757 246.396 253.531 245.854L276.503 224.129L252.62 243.534C252.542 243.322 252.454 243.114 252.378 242.901C258.296 236.737 269.312 225.226 268.845 225.462C268.366 225.701 257.292 235.997 251.789 241.129C251.776 241.089 251.762 241.046 251.747 241.006L272.514 220.514L251.318 239.58C251.292 239.494 251.27 239.405 251.244 239.319C257.23 233.146 271.84 218.026 271.078 218.278C270.299 218.538 255.922 232.082 250.655 237.144C250.644 237.107 250.635 237.069 250.626 237.032C255.76 231.478 269.642 216.205 269.642 216.205L260.297 225.033L253.139 230.056L266.138 214.29L254.148 225.841L258.979 219.363L266.138 211.577L247.905 228.079C247.866 227.976 247.829 227.874 247.791 227.771C253.695 221.718 264.883 210.139 264.058 210.139C263.658 210.139 260.582 212.798 256.799 216.207C256.799 216.207 256.801 216.203 256.799 216.205C256.55 216.371 255.16 217.649 253.45 219.249C251.195 221.313 248.893 223.442 246.887 225.309C246.831 225.173 246.778 225.038 246.725 224.902C246.916 224.571 247.139 224.189 247.371 223.788C253.288 217.238 261.026 208.565 260.229 208.863C259.63 209.088 255.072 213.728 250.412 218.448C251.675 216.175 252.784 214.084 253.137 213.144C256.979 208.896 259.978 205.51 259.271 205.832C258.191 206.322 250.304 213.925 244.455 219.492C244.401 219.367 244.339 219.243 244.284 219.118C250.814 212.951 260.243 204.302 261.12 203.497L244.221 218.984C244.186 218.91 244.153 218.84 244.12 218.766C251.02 212.054 261.571 201.729 260.707 202.16C259.779 202.624 249.076 211.938 243.297 216.995C243.253 216.901 243.21 216.805 243.166 216.711C249.256 210.671 260.974 198.974 259.43 199.926C258.196 200.685 249.913 207.537 243.398 212.971L256.318 200.046L242.676 211.417L254.404 198.969L248.242 204.235L240.237 210.898C240.226 210.876 240.215 210.854 240.204 210.83L246.506 204.714L245.132 205.489L254.764 195.258L240.126 206.775L251.292 194.66L236.636 204.646C236.538 204.486 236.437 204.326 236.338 204.165L244.832 194.66L235.415 202.676C235.329 202.538 235.24 202.407 235.154 202.271L241.24 194.66L233.946 200.42C233.821 200.228 233.696 200.035 233.567 199.843L241.001 189.393L232.707 198.586C232.665 198.525 232.624 198.464 232.582 198.402L238.608 187.239L230.734 195.774C230.734 195.774 236.934 187.478 236.214 187.239C235.899 187.134 234.202 188.553 232.398 190.174C235.55 185.646 240.044 179.339 240.044 179.339L228.314 192.551C228.291 192.518 228.265 192.485 228.239 192.452C230.128 189.649 236.641 179.972 236.334 180.177C235.975 180.416 226.816 190.618 226.816 190.618L239.206 175.149L226.16 189.815C226.149 189.8 226.136 189.785 226.124 189.771C228.121 187.141 236.292 176.361 235.975 176.466C235.673 176.566 227.359 185.272 224.712 188.051C224.682 188.016 224.654 187.979 224.623 187.946L234.78 174.551L223.933 187.134C223.885 187.077 223.835 187.021 223.786 186.962L231.428 175.389L221.854 184.753C221.74 184.624 221.624 184.504 221.51 184.377L230.351 168.327L220.429 183.184L227.12 169.883L223.736 174.962L222.062 176.402C224.008 172.861 226.144 168.975 226.483 168.386C226.492 168.371 226.518 168.336 226.521 168.327C226.545 168.279 226.529 168.307 226.483 168.386C226.002 169.191 219.967 176.79 217.392 180.026C217.34 179.974 217.29 179.924 217.241 179.873C219.349 176.516 224.021 169.058 223.649 169.524C223.334 169.92 219.941 173.965 217.671 176.671L219.7 170.96L215.05 177.744C214.882 177.586 214.717 177.426 214.549 177.269L216.35 170.96L211.985 174.965C211.576 174.61 211.169 174.251 210.762 173.908L211.804 169.284L208.487 172.061C208.255 171.879 208.025 171.719 207.791 171.538C233.909 227.703 298.201 487.962 260.5 629C260.5 629 223.051 575.288 182.845 604.015C182.845 604.015 304.168 460.865 192.772 164.034L187.125 162.9L190.422 172.352C189.962 172.765 189.496 173.174 189.051 173.59L184.121 167.434L186.543 176.024C186.175 176.4 185.835 176.785 185.477 177.164L179.973 167.434L182.887 180.059C182.663 180.322 182.434 180.584 182.217 180.847C179.8 174.571 176.25 165.572 176.462 167.434C176.648 169.069 178.706 176.897 180.393 183.151C179.947 183.733 179.511 184.316 179.089 184.904C178.824 184.412 178.568 183.93 178.32 183.458C177.476 181.164 176.757 179.427 176.453 179.247C176.055 179.011 177.035 181.02 178.32 183.458C178.515 183.99 178.717 184.558 178.923 185.138C178.504 185.725 178.075 186.311 177.677 186.904L177.668 186.907L172.126 181.515L168.164 175.987L172.831 185.731L174.798 191.502C174.798 191.502 170.295 187.036 168.708 184.882C168.317 184.075 168.087 183.653 168.164 183.966C168.214 184.163 168.419 184.489 168.708 184.882C169.908 187.364 172.633 193.542 172.633 193.542L163.696 187.797L171.112 198.656C170.932 199.048 170.751 199.44 170.578 199.834L158.273 193.542L168.15 205.836C167.991 206.267 167.853 206.697 167.701 207.126C165.302 203.147 153.804 192.266 153.804 192.266C153.804 192.266 161.018 201.107 167.132 208.754C166.992 209.171 166.843 209.587 166.706 210.003L158.591 201.042L165.952 212.415C165.819 212.846 165.675 213.277 165.548 213.706C162.424 209.924 159.224 206.062 159.388 206.309C159.604 206.629 162.877 212.005 165.027 215.54C164.959 215.778 164.891 216.017 164.825 216.256L153.804 203.757L164.007 219.264C163.996 219.306 163.985 219.346 163.976 219.387L161.11 216.546C158.996 213.958 157.177 211.802 157.315 212.214C157.367 212.367 157.663 212.866 158.096 213.559L149.657 205.193L161.761 219.148C162.225 219.842 162.691 220.536 163.146 221.214L156.676 215.128L157.151 216.024C154.077 213.091 151.608 210.752 151.731 210.938C151.897 211.187 155.828 216.013 159.536 220.547L161.117 223.541C156.277 218.801 149.657 212.375 149.657 212.375L159.294 223.131L152.148 219.004C148.867 216.349 146.284 214.268 146.464 214.45C146.672 214.656 150.176 218.251 154.093 222.271C156.456 225.097 159.449 228.708 161.181 230.896C161.043 231.495 160.905 232.082 160.767 232.673L150.975 223.361L147.985 220.354L148.556 221.061L144.474 217.179L142.316 215.128L157.498 233.577L153.486 229.451L159.589 237.652C159.554 237.794 159.519 237.938 159.484 238.08L143.594 219.875C143.594 219.875 153.051 231.717 159.153 239.429C159.086 239.698 159.022 239.969 158.956 240.24C152.656 233.408 142.992 222.985 143.434 224.129C143.793 225.055 150.24 232.863 155.739 239.499L148.699 231.686C148.699 231.686 154.313 238.599 158.186 243.147C158.168 243.214 158.149 243.28 158.131 243.348C157.903 243.14 157.667 242.928 157.428 242.715C150.934 235.805 141.685 225.898 142.316 227.057C142.723 227.802 146.277 231.925 150.163 236.408C149.187 235.581 148.593 235.089 148.699 235.196C148.924 235.421 151.652 238.328 154.432 241.328C155.605 242.683 156.711 243.965 157.663 245.081C157.615 245.265 157.568 245.447 157.516 245.626C155.576 243.932 153.098 241.731 151.349 240.17C147.499 236.4 143.688 232.614 142.508 231.434C142.423 231.345 142.346 231.266 142.285 231.205C142.009 230.933 142.119 231.045 142.508 231.434C144.106 233.117 149.935 239.951 154.556 245.565L156.651 248.421C156.568 248.686 156.483 248.953 156.402 249.222C150.443 242.774 140.324 231.253 140.562 231.844C140.735 232.279 146.146 239.461 150.995 245.847L147.952 243.173C142.941 237.317 138.093 231.774 138.327 232.483C138.605 233.314 144.87 241.792 150.098 248.786L150.798 249.9C145.139 242.6 137.823 233.358 138.32 235.036C138.837 236.778 145.991 247.725 151.048 255.343L146.772 250.813C142.016 244.703 137.211 238.614 137.211 238.967C137.211 239.15 138.375 241.041 140.07 243.716L138.807 242.378L142.909 250.158C139.139 244.79 135.91 240.418 136.412 242.217C137.171 244.926 144.901 256.881 149.647 264.295C149.454 264.613 149.263 264.937 149.066 265.254C144.747 259.96 138.992 252.83 137.34 250.445C136.983 249.801 136.812 249.517 136.893 249.719C136.943 249.847 137.105 250.103 137.34 250.445C138.809 253.082 143.439 261.814 146.96 268.477C146.56 269.051 146.151 269.613 145.743 270.171L132.067 254.187L143.861 272.637C143.515 273.073 143.158 273.469 142.806 273.892L132.106 257.739L141.249 275.743C141.125 275.885 141.007 276.04 140.886 276.178L132.824 263.724C132.824 263.724 137.16 272.014 139.884 277.253C139.818 277.327 139.75 277.397 139.682 277.469C136.769 272.567 132.187 264.941 132.106 265.519C132.025 266.079 135.483 274.2 137.778 279.509C137.57 279.722 137.364 279.908 137.154 280.118L123.488 259.415L135.593 281.641C135.451 281.776 135.31 281.921 135.17 282.054L127.2 270.666L133.494 283.588C132.894 284.129 132.288 284.687 131.701 285.192C128.31 278.533 123.932 269.797 122.706 266.746C122.514 265.923 122.393 265.514 122.373 265.679C122.358 265.803 122.479 266.18 122.706 266.746C123.518 270.219 125.624 281.201 127.086 288.922C126.585 289.304 126.097 289.666 125.62 290.016L116.15 267.913L119.882 293.913C118.059 295.047 116.96 295.631 116.96 295.631C110.892 288.248 106.3 282.337 102.832 277.34L112.241 261.689L100.846 274.393C100.735 274.224 100.636 274.062 100.527 273.894C103.392 269.834 107.326 264.203 107.096 264.203C106.867 264.203 102.694 269.016 99.6691 272.539C99.6452 272.498 99.6231 272.46 99.5973 272.421L107.694 262.407L99.1886 271.738C99.0708 271.541 98.9511 271.344 98.8369 271.15L106.617 259.295L97.7821 269.294C97.7453 269.228 97.7047 269.156 97.6679 269.088L107.455 256.303C107.455 256.303 100.943 263.385 96.9186 267.646C96.8487 267.508 96.7824 267.372 96.7143 267.236C101.031 262.159 108.651 253.43 108.651 253.43L96.1767 266.107C96.1472 266.044 96.1159 265.978 96.0865 265.915C99.3819 262.144 105.078 255.585 104.822 255.585C104.61 255.585 99.5089 260.194 95.2948 264.033C95.1567 263.681 95.0187 263.33 94.8935 262.985C96.659 259.479 102.015 254.413 102.015 254.413L93.498 257.811C92.9659 254.756 92.9254 251.745 93.1592 248.392C93.4115 244.775 93.8901 241.269 94.5474 237.862L105.66 233.914L95.0794 235.29C95.9815 231.27 97.1506 227.397 98.5497 223.672L109.283 222.573L99.2144 221.976C100.452 218.875 101.838 215.87 103.368 212.973L110.299 214.432L103.931 211.944C104.023 211.776 104.115 211.607 104.207 211.439L110.299 211.378L104.872 210.237C108.808 203.331 112.785 198.02 117.892 192.316L122.912 192.006L119.486 190.362C120.909 188.804 122.36 187.29 123.834 185.823L129.777 185.935L125.059 184.624C129.816 180.013 134.785 175.851 139.735 172.135L143.887 172.573L141.315 170.964C144.515 168.618 147.698 166.452 150.796 164.473H154.705L153.046 163.058C162.124 157.436 170.313 153.417 175.987 150.883C174.207 150.977 172.463 151.082 170.773 151.201L172.552 149.224L173.509 142.233L167.526 150.373V144.183L164.252 151.741C163.761 151.789 163.291 151.842 162.809 151.894L166.246 137.946C166.246 137.946 162.678 147.319 160.819 152.102C160.624 152.124 160.44 152.148 160.248 152.17C161.082 147.964 162.584 140.315 162.419 140.65C162.255 140.977 159.998 148.365 158.788 152.348C158.678 152.361 158.565 152.374 158.457 152.389L161.067 137.385C161.067 137.385 158.508 147.763 157.201 152.546C157.023 152.569 156.851 152.595 156.676 152.619C157.336 146.911 159.228 132.488 159.04 132.768C158.845 133.063 155.379 148.931 154.51 152.919C154.469 152.925 154.425 152.93 154.383 152.936L155.664 136.597C155.664 136.597 153.136 147.146 151.487 153.389C151.413 153.402 151.334 153.413 151.258 153.426L151.251 153.415V147.962C152 142.329 152.768 136.493 152.4 137.048C151.98 137.676 149.778 145.87 148.143 151.794L146.945 154.194V152.562C147.805 146.156 149.248 136.258 149.248 136.258C149.248 136.258 146.834 145.706 144.968 152.544L145.507 145.585L144.235 148.426C144.979 143.2 145.709 138.188 145.535 138.642C145.314 139.217 142.701 149.08 140.879 155.536C140.52 155.623 140.168 155.715 139.816 155.805C140.744 149.949 142.27 141.325 142.27 141.325C142.27 141.325 140.787 147.071 139.284 152.72V143.053C139.586 140.74 139.7 139.298 139.456 139.637C138.938 140.348 135.737 149.859 133.047 157.784C132.415 157.991 131.756 158.186 131.149 158.4V158.398V153.006L127.097 159.945L128.914 149.224L124.042 161.254L124.766 147.592L121.288 162.011L122.691 147.592L117.426 161.784L118.703 150.452L114.714 164.537L117.107 142.152L110.406 165.454C110.406 165.454 111.045 153.164 111.203 152.687C111.363 152.207 106.737 168.167 106.737 168.167C106.737 168.167 107.149 150.106 107.335 147.052C107.372 146.734 107.387 146.568 107.374 146.622C107.363 146.668 107.35 146.822 107.335 147.052C107.072 149.389 105.603 160.806 104.66 168.084L104.023 161.624L103.736 162.523V145.165L100.041 174.096L100.796 148.435L98.0103 174.903L97.4857 170.774C97.4562 163.707 97.4322 154.54 97.4893 152.135C97.5225 151.792 97.539 151.575 97.528 151.54C97.5114 151.492 97.4985 151.709 97.4893 152.135C97.1966 155.061 95.3556 168.321 94.1295 177.05L93.0249 161.624L89.549 186.758L88.0688 171.2L85.8209 189.914L84.8765 162.9L80.7286 193.78V164.473L75.4909 197.153L74.0273 183.648L72.7717 198.717H72.7699L69.2406 184.924L67.4732 201.453C66.3981 201.97 65.3156 202.422 64.2349 202.904C64.9547 193.441 66.1532 177.659 66.1532 177.201C66.1532 176.787 63.3217 192.612 61.2542 204.23C60.9339 204.362 60.6173 204.471 60.2988 204.6L62.6387 181.451L58.0656 205.465C57.482 205.69 56.8966 205.931 56.3148 206.145L57.0015 182.595L53.2918 207.209C53.0138 207.305 52.7359 207.395 52.4579 207.489L53.406 187.336L50.4143 208.178C49.8841 208.347 49.3576 208.52 48.831 208.681V198.939L47.6104 209.04C47.4429 209.089 47.2809 209.134 47.1152 209.183C47.6933 201.14 48.3726 191.26 48.1775 191.748C47.9934 192.207 46.5739 201.574 45.3625 209.697C44.847 209.843 44.3095 210.016 43.8032 210.154L44.9888 191.947L38.2488 211.568L42.7538 188.436L33.5928 211.417L39.8818 183.648L28.2686 211.48C30.0489 203.692 32.7865 191.62 32.5435 192.026C32.2323 192.544 27.3573 209.443 26.0465 213.997C26.0318 214.001 26.0152 214.002 26.0005 214.004C27.0443 209.782 30.6804 195.017 30.2698 195.737C29.9439 196.304 27.2008 207.158 25.4666 214.091C25.2678 214.122 25.0726 214.154 24.8811 214.183C25.542 209.752 26.4736 203.578 27.1971 198.945C27.8672 195.393 28.3625 192.63 28.3017 192.505C28.2465 192.391 27.7918 195.148 27.1971 198.945C26.1606 204.443 24.7007 211.824 24.2147 214.284C24.187 214.288 24.1594 214.292 24.1318 214.297L26.2011 193.942L23.666 209.616L22.8781 214.479C22.4639 214.538 22.0607 214.594 21.6888 214.643C21.9318 211.319 22.2117 207.83 22.3221 206.661C22.3516 206.471 22.3718 206.324 22.3718 206.27C22.3718 206.182 22.3534 206.336 22.3221 206.661C22.1399 207.863 21.4218 211.539 20.7535 214.765C20.4903 214.796 20.2233 214.831 19.9913 214.859C20.3338 211.688 20.7075 208.334 20.5768 208.664C20.4608 208.951 19.7134 211.942 18.9659 214.977C17.9939 215.083 17.4637 215.128 17.4637 215.128C15.039 197.308 16.7383 182.663 20.4553 170.778L31.3468 163.06L22.2079 165.721C25.0671 158.289 28.6957 152.072 32.4753 146.966L47.3821 142.233H37.8088L44.5101 140.079H38.2157C46.4727 131.262 53.9086 127.467 53.9086 127.467C54.3007 127.275 54.691 127.098 55.0831 126.912H72.5103L60.47 124.474C68.9792 120.869 77.4534 118.327 85.7693 116.631L102.427 120.928L93.0249 116.619L101.471 118.663L95.9557 114.943H95.9576L105.66 117.576L100.514 114.943L112.72 116.619L107.924 113.947H107.933L123.488 116.619L131.178 115.974L135.297 104.809L129.705 115.841C129.602 115.808 129.499 115.771 129.396 115.738L135.297 100.34L126.824 114.904C126.692 114.86 126.559 114.818 126.427 114.775L132.903 99.701L124.818 113.1L125.806 110.048C127.968 105.43 130.35 100.182 129.713 100.819C129.334 101.198 128.153 103.091 126.767 105.413L120.377 111.584L123.729 102.495L115.9 111.584L121.334 98.8853L113.363 110.873L117.111 98.8853L108.491 109.571L114.874 97.3421L105.662 108.848L108.891 100.819L102.985 108.186L108.891 95.7916L103.005 103.207C106.161 98.0713 109.745 92.1547 109.288 92.5193C108.694 92.9963 101.341 102.1 97.852 106.684C100.831 101.977 106.416 92.5046 106.416 92.5046L97.3347 106.885C97.1524 106.844 96.972 106.805 96.7897 106.765L103.544 93.1583C103.544 93.1583 98.2644 101.686 95.1862 106.408C94.9819 106.363 94.7757 106.317 94.5713 106.271C97.6127 100.456 104.036 88.7627 103.544 89.0095C103.086 89.2397 96.8542 100.193 93.5053 106.036C93.4041 106.014 93.301 105.99 93.1997 105.968C96.4657 99.4082 103.066 86.2952 103.066 86.2952C103.066 86.2952 95.536 99.1247 91.6791 105.649C91.5925 105.631 91.5097 105.616 91.4231 105.597C94.7683 99.1228 101.094 86.7077 100.354 87.5732C99.5733 88.4828 92.8241 100.85 90.359 105.386C90.2909 105.371 90.2247 105.358 90.1547 105.345C92.294 100.125 98.5976 84.7023 97.8004 86.2952C97.1101 87.6781 91.5152 99.202 88.5769 105.028C88.4389 105.001 88.3008 104.973 88.1627 104.946C90.9187 98.4894 96.8431 85.1793 96.8431 85.1793C96.8431 85.1793 86.839 104.669 86.7838 104.66C86.7304 104.649 94.5143 87.2527 94.5143 87.2527L89.5471 94.4879L91.8982 88.6099L81.8369 103.743L86.6328 92.6795L79.3534 103.316L86.6328 85.4978L74.4581 102.53L78.0168 92.2008L71.0411 102.034L78.0168 86.5751L69.7451 98.9847C72.9061 93.1804 77.2196 85.1793 77.2196 85.1793L66.3834 101.436C66.109 101.403 65.8329 101.369 65.5605 101.336L71.4738 86.9342L70.209 89.5306L64.5203 101.211C64.5203 101.211 64.5147 101.211 64.511 101.211C63.782 101.128 63.0622 101.016 62.3368 100.915L69.7193 83.2641L61.2119 100.764C61.0223 100.734 60.8327 100.712 60.6449 100.683L67.8046 81.988L59.7096 100.515C59.5918 100.495 59.4758 100.473 59.358 100.451C61.0112 95.1637 64.1704 84.9417 63.8151 85.1793C63.4782 85.4039 59.5881 94.6333 57.3126 100.084C57.1598 100.053 57.007 100.027 56.856 99.9957L61.9005 82.7854L55.9742 99.7986C55.8527 99.7747 55.733 99.7452 55.6115 99.7194L59.5071 84.3801C59.5071 84.3801 56.2467 93.8562 54.2749 99.423C54.1369 99.3917 53.997 99.3641 53.8607 99.3327C55.3961 93.7089 58.0711 84.2217 58.0711 84.2217L52.7524 99.0639C52.6659 99.0418 52.5812 99.0178 52.4947 98.9958C53.2513 95.6332 54.5916 89.5454 54.2437 90.1273C53.9454 90.6226 52.1688 95.1876 50.8672 98.5704C50.4953 98.4709 50.1179 98.3825 49.7497 98.2794L55.0408 85.4978L46.2186 97.228H46.2168L50.7328 86.4554L43.3835 96.2851L49.0575 83.1039L39.3074 94.7917C38.8526 94.6149 38.4072 94.4308 37.9561 94.2485L41.6382 85.9766L35.9199 93.4106C35.6898 93.313 35.4615 93.2136 35.2314 93.1141L39.0055 82.3857L33.0406 92.1474C32.9319 92.0976 32.8233 92.0479 32.7147 92L39.0055 79.0343L30.8276 91.1253C28.5263 90.0315 26.3208 88.9027 24.222 87.7665L33.2615 74.7253L21.7679 86.4075C20.9671 85.9527 20.1957 85.5015 19.4298 85.0485L30.4686 73.8469L18.5093 84.5016C18.4578 84.4703 18.4062 84.439 18.3547 84.4077L27.4383 75.762L17.204 83.7061L17.1341 83.6619L28.2355 73.6885L16.6849 83.3875C16.6002 83.336 16.5081 83.2826 16.4253 83.231L25.9471 72.0312L27.118 70.6556L16.0092 82.9695C15.7717 82.8203 15.549 82.6767 15.3152 82.5275L24.7246 72.0349L13.6711 81.4779C13.6545 81.4669 13.6398 81.4577 13.6233 81.4466L23.1303 72.0349L13.1851 81.1557C13.1372 81.1225 13.093 81.0931 13.0433 81.0599L21.6133 70.6556L11.7049 80.1705C11.6036 80.1023 11.4895 80.0305 11.3901 79.9624L20.3375 69.9375L9.76443 78.8428C9.58217 78.7157 9.40913 78.5923 9.23239 78.4671L16.3332 70.1769L6.26465 76.3218C6.12657 76.2205 5.99404 76.1211 5.85965 76.0198L20.3375 65.3891L3.34665 74.0937C1.33809 72.51 0.240814 71.5377 0.240814 71.5377Z" fill="#05293D"/>
</svg>
