<svg width="358" height="629" viewBox="0 0 358 629" fill="none" xmlns="http://www.w3.org/2000/svg">
<path fill-rule="evenodd" clip-rule="evenodd" d="M131.659 115.914L132.294 115.862L136.172 106.883L131.659 115.914ZM139.854 104.489L133.014 115.802L134.85 115.647L139.854 104.489ZM136.278 115.527L136.567 115.503C136.901 115.551 137.226 115.606 137.558 115.656C141.284 110.447 147.14 102.197 146.704 102.416C146.273 102.631 140.194 110.454 136.278 115.527ZM3.05176e-05 71.5383C3.05176e-05 71.5383 9.65991 46.0396 74.9777 55.8233C118.089 62.2794 153.753 93.1755 173.027 113.443L178.215 110.156L173.029 111.513L179.252 107.283L171.753 110.474L175.663 108.001L170.415 109.555C170.415 109.555 176.383 105.605 176.902 105.386C176.385 105.58 171.035 107.362 171.035 107.362L176.061 103.292L169.999 107.044L177.657 98.9448L168.279 104.291L170.396 102.016C170.396 102.016 170.345 102.053 170.308 102.079L174.951 98.2248L169.781 101.237C170.153 100.911 170.396 100.7 170.396 100.7L165.02 104.011L174.951 96.4312L168.032 100.49C167.451 100.738 166.617 101.083 165.691 101.458L173.11 95.3926L163.54 101.773L163.505 101.722C165.208 100.304 171.412 95.144 173.9 93.1994C174.597 92.7299 175.004 92.4408 174.943 92.4408C174.89 92.4408 174.492 92.7372 173.9 93.1994C171.663 94.7021 166.447 98.0406 163.861 99.6906L167.095 96.2415L175.303 89.8075L161.215 98.4274C161.174 98.3721 161.136 98.3187 161.097 98.2635L168.362 91.1241C168.362 91.1241 165.192 93.17 162.64 94.9341C166.153 92.0154 171.495 87.4265 172.677 86.5039C172.836 86.3989 172.94 86.3271 172.909 86.3363C172.887 86.3437 172.802 86.4044 172.677 86.5039C170.934 87.6585 158.847 95.1238 158.847 95.1238L169.08 86.456L157.689 93.6046L157.608 93.4996C160.285 91.2493 169.592 83.4342 170.365 82.8891C169.562 83.4489 159.523 90.3286 156.679 92.2787C156.653 92.2456 156.629 92.2124 156.603 92.1811L166.926 82.8651L155.813 91.1462C155.688 90.9842 155.563 90.8129 155.436 90.6509L162.379 84.4212L153.385 88.0802L158.431 83.1045L152.339 86.8059L158.431 82.2667L150.817 84.9828L151.649 84.3807L156.436 80.2319L154.453 81.1802C157.892 79.2154 161.686 77.0627 163.281 76.1991C163.813 75.9412 164.124 75.7866 164.054 75.8031C163.999 75.8179 163.713 75.9652 163.281 76.1991C160.694 77.4494 152.216 81.3883 149.002 82.8799C148.98 82.8559 148.959 82.8338 148.939 82.8081L163.461 74.8456C163.461 74.8456 153.656 79.2246 147.989 81.74C147.82 81.5448 147.648 81.357 147.479 81.1636C152.115 78.0994 160.112 72.8752 162.653 71.2676C163.192 70.949 163.505 70.7594 163.456 70.7759C163.415 70.7907 163.122 70.9693 162.653 71.2676C159.777 72.9636 149.883 78.6445 146.809 80.4086C146.765 80.3589 146.721 80.3092 146.675 80.2595L159.888 68.9805L145.019 78.3904C144.996 78.3664 144.973 78.3388 144.951 78.3149L159.028 67.1851L144.311 76.641C144.311 76.641 153.065 69.8626 157.445 66.6142C159.046 65.5425 160.044 64.8519 159.867 64.9109C159.7 64.9661 158.761 65.6383 157.445 66.6142C153.367 69.3433 145.397 74.5344 142.924 76.142C142.889 76.1051 142.856 76.0683 142.821 76.0315L156.277 63.7139L141.175 74.2766C140.802 73.8825 140.421 73.4608 140.049 73.0741L140.039 73.0593L147.742 67.7836L137.742 70.6931C137.368 70.3137 136.994 69.9289 136.626 69.555L144.948 63.6347L133.165 66.0894C132.825 65.7506 132.484 65.4136 132.145 65.0785L141.118 58.8469L129.988 62.9534L141.118 56.2928L127.811 60.8191C127.618 60.6295 127.425 60.4398 127.235 60.252L136.652 53.5877L124.945 58.0035C124.836 57.8967 124.735 57.7936 124.628 57.6887C128.342 55.8104 136.963 51.4627 140.426 49.7925C141.441 49.3524 142.022 49.0909 141.917 49.1111C141.823 49.1295 141.256 49.3929 140.426 49.7925C136.937 51.3098 128.216 54.9799 123.778 56.8434C123.722 56.7882 123.667 56.7348 123.612 56.6795L145.866 45.2809L122.071 55.1438C122.005 55.0775 121.942 55.013 121.876 54.9467C126.368 52.6044 135.349 47.9252 137.561 46.8424C137.939 46.6767 138.14 46.5846 138.086 46.5975C138.046 46.6086 137.838 46.708 137.561 46.8424C135.131 47.9086 124.917 52.2066 120.856 53.9137C120.827 53.8824 120.797 53.8529 120.768 53.8234L133.3 47.5551L119.853 52.8935C119.58 52.6099 119.315 52.3116 119.048 52.0206L132.502 46.3986L116.857 49.4794H116.855L130.269 43.1448L113.271 44.4228L120.377 41.5961H111.557V41.5943L124.844 35.8655L109.913 38.5411C109.867 38.4527 109.823 38.3643 109.779 38.2759L124.844 31.0777L108.311 35.2633C108.214 35.0515 108.131 34.8379 108.035 34.6262L123.489 30.0796L107.413 33.1843C107.393 33.1383 107.372 33.0922 107.352 33.0444C111.135 31.8437 122.701 28.1774 126.193 27.1296C126.867 26.9528 127.246 26.8478 127.197 26.8478C127.152 26.8478 126.791 26.951 126.193 27.1296C122.616 28.0687 110.465 31.0961 106.896 31.9855C106.888 31.9689 106.879 31.9487 106.872 31.9321L120.497 27.6857L106.321 30.6228C106.275 30.5068 106.235 30.3926 106.189 30.2748L124.325 23.7358L105.594 28.7095C105.588 28.693 105.581 28.6782 105.576 28.6617L122.651 22.7193L105.183 27.636C105.121 27.461 105.049 27.2861 104.985 27.113L121.933 20.0252L104.53 25.8277C104.511 25.7706 104.493 25.7172 104.475 25.6601L114.514 21.3437L103.563 22.9605C103.536 22.8758 103.503 22.7856 103.477 22.699L120.256 18.5299L102.744 20.3033C102.731 20.2572 102.716 20.2112 102.704 20.1652L123.489 16.5541L102.289 18.7859C102.243 18.6257 102.186 18.4563 102.142 18.2979L118.781 15.4363L100.789 13.1547L117.505 11.2875L99.78 8.7352H113.037L99.1411 5.5421H108.569L98.598 2.45212C98.3752 1.06734 98.274 0.275513 98.274 0.275513C98.274 0.275513 108.098 -0.960109 121.211 1.80209L123.886 5.22352L123.246 2.24956C125.81 2.85724 128.482 3.62882 131.215 4.58454L132.983 8.57499L132.521 5.05595C133.068 5.25851 133.618 5.46844 134.17 5.68757L136.013 10.8087V6.45178C136.162 6.51439 136.31 6.57884 136.459 6.64329L136.81 10.8087C136.81 10.8087 137.009 9.09244 137.249 6.98581C137.514 7.1055 137.777 7.21415 138.044 7.33753C138.068 9.97818 138.099 12.245 138.099 12.245L138.859 7.73528C143.622 10.004 148.442 12.9061 153.109 16.6498L152.606 21.5021L154.177 17.5448C154.469 17.7897 154.762 18.042 155.053 18.2924L154.042 22.7782C154.042 22.7782 154.841 20.8741 155.697 18.843C156.062 19.1634 156.423 19.4875 156.784 19.819C156.581 21.445 156.436 22.7782 156.436 22.7782C156.436 22.7782 156.971 21.8464 157.669 20.6624C158.231 21.1964 158.796 21.7194 159.352 22.281C158.969 23.8978 158.671 25.1721 158.671 25.1721L160.442 23.4411C164.814 28.0577 168.927 33.5397 172.552 40.1174C172.602 40.2095 172.646 40.3016 172.696 40.3918L171.435 43.1448L173.347 41.6219C173.554 42.0086 173.758 42.3953 173.96 42.782L172.552 44.4835L174.148 43.1337C174.354 43.5315 174.572 43.9219 174.774 44.3215L173.029 46.3986L175.098 44.9697C175.404 45.5755 175.695 46.1869 175.991 46.7946L174.146 49.2713L176.461 47.7576C179.992 55.1217 182.924 62.6753 185.354 70.1664L183.88 74.0077L185.936 71.9692C186.087 72.448 186.229 72.9268 186.376 73.4074L184.677 76.5618C184.677 76.5618 185.609 75.5232 186.665 74.3521C186.857 74.9892 187.054 75.6264 187.238 76.2598C186.612 77.7367 186.113 78.9557 186.113 78.9557C186.113 78.9557 186.68 78.1473 187.459 77.0406C187.763 78.0957 188.066 79.1509 188.352 80.1987C187.879 81.4417 187.549 82.3072 187.549 82.3072L188.722 81.6166C188.933 82.4121 189.143 83.2058 189.342 83.994L187.868 85.9772L189.478 84.5169C189.751 85.6034 190.007 86.6806 190.261 87.7561L189.304 92.6801L190.957 90.7908C193.177 100.762 194.609 110.108 195.535 118.103C197.673 113.128 200.215 107.675 203.174 102.05C203.687 103.869 204.142 105.447 204.142 105.447L205.703 97.3888C206.339 96.2526 206.994 95.1146 207.664 93.9728L208.61 98.8859L209.433 91.0191C211.105 88.2938 212.872 85.5795 214.735 82.9057C215.179 83.935 215.568 84.6974 215.632 84.3807C215.684 84.1173 215.807 82.8117 215.947 81.1931C218.878 77.1106 222.037 73.1478 225.432 69.4243C226.004 70.833 226.481 72.0189 226.481 72.076C226.481 72.146 226.64 70.078 226.82 67.9309C227.089 67.6473 227.356 67.36 227.628 67.0783C227.788 69.2641 227.991 71.658 228.236 72.0355C228.523 72.4793 228.466 69.1076 228.374 66.3214C228.528 66.1649 228.683 66.0084 228.84 65.8519L229.672 70.0191V65.0232C229.773 64.9256 229.876 64.828 229.977 64.7304L230.469 69.0615V64.2572C230.763 63.9754 231.056 63.6918 231.354 63.4138L232.544 67.6234L233.888 61.1414C241.627 54.4274 250.37 49.1479 260.15 46.3802L261.104 50.2289L262.727 45.721C263.304 45.5774 263.885 45.4264 264.458 45.2956L264.933 48.3138L266.083 44.9384C313.311 35.0534 338.648 69.6987 338.648 69.6987C338.648 69.6987 338.276 69.9639 337.602 70.4261L312.8 51.9838C312.8 51.9838 326.743 63.5261 336.199 71.3744C336.033 71.4849 335.858 71.6009 335.68 71.7188C326.889 65.1355 314.955 56.2155 315.672 56.9318C316.471 57.731 327.228 67.6749 333.29 73.2711C333.191 73.3356 333.102 73.3927 333.001 73.4571L329.093 71.4149L312.002 59.8045L321.417 67.4042L305.034 58.8414L327.924 76.5894C327.502 76.8436 327.067 77.0995 326.626 77.361L305.034 66.443L322.242 79.8893C321.905 80.079 321.559 80.2705 321.213 80.4639C315.9 78.0994 306.783 74.0169 302.387 71.9048C301.17 71.1166 300.292 70.6139 299.968 70.5586C299.546 70.4887 300.56 71.0264 302.387 71.9048C306.001 74.2416 312.676 79.1215 317.334 82.576C316.787 82.8688 316.239 83.1598 315.673 83.4544L296.168 74.9929L310.677 85.9938C310.021 86.316 309.344 86.6383 308.672 86.9624L291.101 71.3744L306.927 87.7984C306.603 87.9513 306.268 88.1041 305.938 88.257L294.452 78.3167C294.452 78.3167 299.616 84.2426 303.928 89.1887C303.788 89.2513 303.644 89.314 303.506 89.3766C298.023 83.7638 290.897 76.5894 291.101 77.2008C291.259 77.6777 295.886 82.7602 300.374 87.5019C294.467 82.1304 287.699 76.2985 288.069 77.0406C288.426 77.7551 294.999 84.9884 300.257 90.8148C299.973 90.9363 299.677 91.0578 299.391 91.1794C293.336 85.2609 285.979 78.0497 287.112 79.5929C288.075 80.9058 293.684 86.7138 298.351 91.6195C297.836 91.8368 297.331 92.0559 296.808 92.2713L286.67 83.8614L292.845 93.8605C292.688 93.9231 292.528 93.9802 292.37 94.041L286.67 90.5109L289.279 95.1993C289.004 95.3005 288.728 95.3981 288.452 95.4994L277.805 85.7599L285.937 96.3833C285.768 96.4423 285.598 96.4993 285.431 96.5583L274.889 89.8774L281.208 97.9467C281.069 97.9909 280.918 98.0462 280.779 98.0904C275.92 92.8201 265.778 80.7972 265.898 81.6682C266.015 82.53 275.068 94.2675 278.61 98.8177C278.582 98.827 278.555 98.8362 278.529 98.8454C274.793 94.5603 265.36 84.2241 265.896 85.9772C266.295 87.2865 272.527 94.7407 276.522 99.5175C276.355 99.5746 276.194 99.6243 276.027 99.6832C270.31 93.7666 260.222 83.2905 260.467 83.9019C260.544 84.0989 261.556 85.3732 263.042 87.1871C266.052 90.8681 270.995 96.7535 274.05 100.379C273.133 100.709 272.192 101.072 271.26 101.422C267.175 96.5306 260.341 88.1943 260.461 89.0101C260.56 89.6841 266.06 96.7479 270.09 101.86C269.977 101.904 269.867 101.943 269.754 101.985C264.9 96.5362 258.081 89.0469 259.509 91.2438C260.575 92.8864 263.661 97.2672 266.409 101.14L259.124 95.5786L264.83 103.92C264.311 104.132 263.79 104.351 263.27 104.569L255.641 98.8859L259.769 106.057L249.308 101.911L254.98 108.187L241.392 101.28L245.838 106.837C240.74 102.486 234.777 97.3519 234.777 97.3519C234.777 97.3519 242.76 105.206 247.469 109.758C242.205 105.097 232.696 97.1328 233.183 98.1069C233.667 99.0774 243.104 108.036 246.959 112.036C246.753 112.137 246.55 112.24 246.348 112.343C241.951 108.721 232.516 100.173 231.183 98.9559C231.159 98.9338 231.128 98.9025 231.108 98.8859C230.971 98.7625 231.008 98.7975 231.183 98.9559C232.407 100.103 240.245 108.27 244.816 113.111C244.68 113.181 244.545 113.247 244.411 113.316C239.427 108.749 231.237 101.278 231.586 102.097C231.927 102.889 238.993 110.156 242.796 114.126C242.651 114.201 242.502 114.271 242.358 114.347C237.406 110.13 227.737 101.794 228.714 102.895C229.578 103.865 236.2 111.154 240.204 115.487C240.153 115.514 240.105 115.542 240.053 115.568C235.235 111.069 226.735 103.434 227.439 104.489C228.396 105.928 238.128 116.14 237.491 115.822C237.275 115.715 237.301 116.244 237.424 116.987C236.859 117.295 236.286 117.597 235.727 117.906L225.364 106.405L230.554 114.901L226.827 111.413L232.323 119.805C232.146 119.906 231.964 120.007 231.787 120.109L224.25 116.619L227.81 122.455L215.746 113.947L224.25 124.655L215.746 120.915L219.76 127.57L210.996 123.131L215.746 130.099H206.88L209.317 134.001C230.839 122.271 269.46 108.353 308.013 130.025C328.542 141.565 340.686 155.747 347.843 169.254C345.903 169.366 344.45 169.451 344.45 169.451L348.7 170.898C349.182 171.859 349.633 172.811 350.067 173.763L347.948 173.587C347.948 173.587 348.944 173.935 350.377 174.432C350.747 175.262 351.091 176.084 351.426 176.905C350.038 176.73 349.062 176.609 349.062 176.609L351.741 177.675C352.093 178.559 352.42 179.435 352.733 180.308L349.062 179.789C349.062 179.789 350.861 180.317 352.978 180.986C354.405 185.063 355.428 188.965 356.148 192.598L350.174 191.082L356.782 196.204C358.608 208.055 357.316 216.205 357.316 216.205C357.316 216.205 353.39 215.034 347.321 212.981C348.734 208.053 350.598 201.363 350.296 201.363C350.007 201.363 345.371 206.757 341.731 211.042H341.729C344.091 206.698 349.681 196.108 349.681 196.108L339.669 210.304C339.518 210.248 339.375 210.199 339.222 210.143C341.934 204.696 347.748 192.957 347.289 193.416C347.002 193.703 344.009 198.17 340.965 202.752L342.319 197.693C342.319 197.693 338.15 204.109 335.011 208.595C334.155 208.274 333.261 207.924 332.382 207.587C336.037 201.459 343.442 189.003 343.103 189.23C342.779 189.447 335.142 201.144 331.256 207.157C331.145 207.112 331.039 207.074 330.928 207.029C334.568 199.818 342.109 184.328 341.759 184.446C341.422 184.558 333.539 199.185 329.603 206.516C329.479 206.468 329.354 206.414 329.231 206.368L338.648 184.446C338.648 184.446 330.114 199.352 326.48 205.264C325.904 205.032 325.341 204.812 324.761 204.575C327.598 199.553 331.946 192.106 331.946 192.106L322.399 203.59C322.134 203.479 321.87 203.37 321.603 203.258C324.168 198.695 327.959 191.895 327.638 192.106C327.294 192.336 322.743 198.96 320.215 202.66C319.996 202.566 319.775 202.47 319.556 202.376L323.649 191.309L316.984 201.244C316.852 201.185 316.717 201.124 316.583 201.065L321.416 190.351L316.64 195.927C321.079 187.86 326.668 177.594 326.213 177.868C325.67 178.194 316.305 191.521 311.271 198.57C311.073 198.474 310.877 198.376 310.68 198.281C315.695 189.541 326.362 171.289 326.362 171.289L309.103 197.511C308.937 197.43 308.77 197.351 308.606 197.268C312.179 190.154 319.05 176.487 319.477 175.645C319.479 175.642 319.484 175.629 319.486 175.625C319.514 175.572 319.503 175.592 319.477 175.645C318.984 176.618 311.802 189.539 307.739 196.846C307.44 196.695 307.127 196.553 306.831 196.401L316.15 176.627L303.066 194.404C302.852 194.288 302.655 194.165 302.442 194.047L316.647 171.289C316.647 171.289 303.913 188.733 300.559 192.972C300.489 192.931 300.417 192.891 300.347 192.85C303.401 187.945 317.244 167.434 317.244 167.434C317.244 167.434 304.508 184.521 299.045 192.104C299.016 192.088 298.984 192.071 298.955 192.055C303.21 185.041 311.715 170.243 311.715 170.243C311.715 170.243 302.28 185.926 298.305 191.655C298.093 191.528 297.9 191.397 297.692 191.268C301.264 184.726 312.135 167.399 310.599 168.747C309.208 169.968 300.7 183.54 296.405 190.456C296.298 190.388 296.19 190.322 296.083 190.254L306.334 170.243L294.835 189.165L303.226 172.797L292.762 188.033C292.6 187.917 292.427 187.801 292.268 187.685C294.781 182.37 299.264 172.797 298.918 172.797C298.533 172.797 292.366 182.505 290.221 186.131C290.179 186.098 290.142 186.063 290.102 186.029C291.381 182.323 294.132 172.797 294.132 172.797L290.928 177.765L301.849 158.431L285.177 181.599C285.105 181.531 285.033 181.463 284.961 181.394C289.279 174.572 297.245 161.95 296.917 162.17C296.529 162.427 286.574 176.487 283.853 180.334C283.831 180.31 283.805 180.288 283.781 180.266L295.571 160.374L282.019 178.491C281.892 178.362 281.763 178.231 281.636 178.1C285.212 172.016 291.274 161.595 290.639 162.02C290.021 162.433 284.426 171.73 281.012 177.465C280.955 177.408 280.898 177.349 280.841 177.29C285.02 169.429 293.025 154.284 292.581 154.395C292.178 154.496 285.508 165.499 281.217 172.638L286.473 159.709L277.735 174.097C277.535 173.891 277.332 173.682 277.13 173.476L281.208 160.347L274.335 170.659C274.182 170.508 274.028 170.357 273.873 170.208C275.857 165.801 278.932 158.945 278.496 159.709C278.065 160.464 274.941 165.876 272.958 169.313C272.82 169.178 272.674 169.047 272.534 168.915L279.932 149.224L270.226 166.79C270.027 166.615 269.832 166.436 269.631 166.261C271.57 160.835 274.458 152.579 274.028 152.688C273.505 152.817 269.766 161.954 268.436 165.241C268.342 165.164 268.25 165.085 268.156 165.005L269.72 153.485L264.579 162.216C264.34 162.041 264.099 161.868 263.854 161.696L268.125 147.593L262.597 155.966C265.853 149.983 270.012 142.136 270.012 142.136L259.664 159.017C259.502 158.921 259.334 158.831 259.17 158.737L270.012 134.211L257.158 157.638C257.114 157.616 257.068 157.595 257.026 157.573L266.424 134.211C266.424 134.211 258.988 150.176 255.63 156.881C255.429 156.785 255.242 156.682 255.039 156.588C257.615 149.366 264.182 132.417 264.182 132.417L253.252 155.822C253.206 155.804 253.159 155.782 253.112 155.763L257.156 138.643C257.156 138.643 253.684 149.399 251.676 155.176C251.541 155.124 251.399 155.08 251.263 155.028C253.244 148.386 257.499 135.244 257.156 136.155C256.816 137.065 252.055 149.068 249.737 154.48C249.481 154.391 249.238 154.292 248.979 154.205V154.071C249.897 149.268 251.733 140.538 251.179 141.538C250.904 142.031 250.004 144.744 248.979 147.974V146.464L246.037 153.329C245.738 153.246 245.453 153.157 245.149 153.08V144.07L243.599 152.723C243.432 152.684 243.262 152.646 243.095 152.609L242.277 140.079L240.291 149.823C240.543 143.105 240.972 131.456 240.865 132.417C240.756 133.393 239.234 145.294 238.404 151.764C238.229 151.738 238.054 151.708 237.875 151.684V140.641C237.875 140.641 237.2 146.677 236.726 151.531C236.631 151.52 236.533 151.511 236.439 151.498C236.193 144.992 235.484 135.557 235.484 135.557C235.484 135.557 234.933 144.786 234.537 151.285C234.407 151.272 234.269 151.264 234.138 151.253V139.892C234.138 139.892 233.61 146.486 233.177 151.176C233.021 151.165 232.866 151.152 232.708 151.139C232.842 146.285 233.044 139.44 232.643 140.043C232.242 140.647 230.758 146.926 229.83 150.975C229.506 150.962 229.193 150.942 228.865 150.931L227.278 142.313L226.463 150.874C226.417 150.874 226.367 150.876 226.321 150.876V142.313L224.633 150.896C224.423 150.898 224.215 150.9 224.001 150.904C223.672 148.32 223.131 144.072 223.131 144.072C223.131 144.072 222.055 147.832 221.153 150.992C220.503 151.02 219.846 151.053 219.18 151.091L217.547 142.153L212.482 151.666C212.366 151.679 212.243 151.695 212.127 151.708C230.482 156.724 267.608 170.863 292.696 207.109C303.502 222.722 308.377 237.581 309.979 250.624C308.609 250.057 307.567 249.591 307.376 249.4C307.103 249.129 308.51 250.854 310.213 252.922C310.299 253.849 310.375 254.766 310.432 255.672L306.737 253.072L310.483 256.598C310.675 260.279 310.62 263.783 310.379 267.091L307.694 263.284L310.222 269.044C310.172 269.569 310.112 270.083 310.053 270.595L308.013 267.115L309.99 271.184C309.904 271.888 309.806 272.571 309.707 273.252C308.374 271.427 307.057 269.578 306.45 268.599C306.234 268.1 306.098 267.824 306.098 267.914C306.098 267.997 306.231 268.243 306.45 268.599C307.008 269.888 308.16 272.801 309.305 275.738C306.744 290.148 301.312 299.035 301.312 299.035C301.312 299.035 299.837 298.055 297.39 296.254L302.748 280.362L294.859 294.352C294.691 294.225 294.531 294.103 294.36 293.97C297.269 287.082 302.053 275.692 301.551 276.532C301.168 277.173 298.093 282.636 295.547 287.557C295.718 286.997 295.886 286.443 296.044 285.925C296.897 284.122 297.48 282.673 297.409 282.277C297.318 281.786 296.772 283.54 296.044 285.925C295.052 288.028 293.701 290.599 292.578 292.58C292.366 292.413 292.158 292.251 291.941 292.076C293.828 287.367 296.645 279.405 296.645 279.405C296.645 279.405 296.168 280.576 295.479 282.29C294.402 284.973 292.813 288.978 291.729 291.906C290.507 290.93 289.209 289.871 287.848 288.724L298.679 273.899L284.1 285.483C283.897 285.303 283.697 285.128 283.49 284.944L291.02 275.574L280.924 282.599C280.876 282.555 280.828 282.509 280.78 282.465L289.345 273.899L279.405 281.167H279.403L285.755 271.026L284.102 272.484L292.456 262.647L275.392 277.173C275.272 277.051 275.154 276.926 275.035 276.802L285.037 266.956L273.72 275.445C273.444 275.154 273.166 274.884 272.89 274.587L285.276 261.69L272.348 274.02C271.955 273.595 271.575 273.136 271.183 272.703L275.944 266.385L289.106 252.832L268.974 270.205C268.749 269.943 268.519 269.7 268.296 269.437L270.449 266.77L284.08 254.029L276.887 258.797L265.662 266.236C265.59 266.144 265.52 266.05 265.448 265.958C269.482 261.909 282.012 249.28 281.208 249.481C280.392 249.685 267.114 259.931 263.182 262.975C263.136 262.912 263.09 262.85 263.044 262.787L278.096 246.608L262.061 258.817L276.9 240.384L259.137 257.04C259.095 256.972 259.053 256.904 259.008 256.836L266.695 247.641L277.408 237.889L269.585 244.183L269.959 243.735L268.497 245.058L258.616 253.011L258.894 252.438L274.722 237.889C274.722 237.889 266.367 244.452 260.531 249.074L261.196 247.711C266.553 242.588 273.438 235.935 273.438 235.935C273.438 235.935 265.907 240.986 260.467 244.641L261.013 243.47C266.106 239.366 272.534 234.175 272.279 234.285C272.083 234.37 267.111 237.955 261.792 241.809L263.018 239.187L256.076 245.956C255.347 246.485 254.649 246.991 253.988 247.472C253.749 246.934 253.517 246.396 253.29 245.855L276.263 224.129L252.379 243.535C252.302 243.323 252.213 243.115 252.138 242.901C258.055 236.738 269.071 225.227 268.604 225.463C268.125 225.702 257.051 235.998 251.549 241.13C251.536 241.089 251.521 241.047 251.506 241.006L272.273 220.515L251.077 239.581C251.052 239.494 251.029 239.406 251.004 239.32C256.989 233.147 271.599 218.027 270.837 218.279C270.058 218.539 255.682 232.083 250.415 237.145C250.403 237.108 250.394 237.069 250.385 237.032C255.52 231.479 269.401 216.205 269.401 216.205L260.056 225.033L252.898 230.057L265.898 214.29L253.907 225.842L258.738 219.364L265.898 211.578L247.664 228.079C247.625 227.976 247.589 227.875 247.55 227.772C253.454 221.719 264.642 210.14 263.817 210.14C263.418 210.14 260.341 212.799 256.558 216.207C256.558 216.207 256.56 216.204 256.558 216.205C256.309 216.371 254.92 217.649 253.209 219.249C250.954 221.314 248.653 223.442 246.646 225.31C246.591 225.173 246.537 225.039 246.484 224.903C246.675 224.571 246.898 224.19 247.13 223.789C253.047 217.239 260.785 208.565 259.988 208.864C259.39 209.088 254.831 213.729 250.172 218.448C251.434 216.176 252.543 214.084 252.896 213.145C256.738 208.897 259.737 205.51 259.031 205.833C257.95 206.322 250.063 213.926 244.214 219.493C244.161 219.367 244.098 219.244 244.043 219.119C250.573 212.952 260.003 204.302 260.879 203.498L243.98 218.984C243.945 218.911 243.912 218.841 243.879 218.767C250.779 212.055 261.33 201.73 260.467 202.161C259.539 202.625 248.835 211.939 243.056 216.995C243.012 216.902 242.969 216.806 242.925 216.712C249.015 210.672 260.733 198.975 259.189 199.927C257.955 200.686 249.673 207.538 243.157 212.972L256.078 200.047L242.436 211.418L254.163 198.969L248.001 204.236L239.996 210.898C239.985 210.876 239.974 210.854 239.963 210.83L246.265 204.715L244.891 205.49L254.524 195.259L239.886 206.775L251.052 194.66L236.395 204.647C236.298 204.486 236.196 204.326 236.097 204.166L244.591 194.66L235.175 202.676C235.088 202.538 235 202.407 234.913 202.271L241 194.66L233.705 200.42C233.58 200.229 233.455 200.036 233.326 199.844L240.76 189.394L232.466 198.586C232.424 198.526 232.384 198.465 232.341 198.402L238.367 187.239L230.493 195.774C230.493 195.774 236.693 187.479 235.974 187.239C235.659 187.134 233.961 188.554 232.157 190.175C235.309 185.646 239.803 179.339 239.803 179.339L228.074 192.552C228.05 192.519 228.024 192.486 227.998 192.452C229.887 189.65 236.401 179.973 236.093 180.177C235.734 180.417 226.575 190.618 226.575 190.618L238.965 175.15L225.92 189.816C225.909 189.801 225.896 189.786 225.883 189.771C227.88 187.142 236.051 176.362 235.734 176.467C235.432 176.566 227.118 185.273 224.471 188.051C224.441 188.016 224.414 187.98 224.382 187.946L234.539 174.552L223.692 187.134C223.644 187.077 223.594 187.022 223.545 186.963L231.187 175.389L221.614 184.753C221.499 184.624 221.383 184.505 221.269 184.378L230.11 168.327L220.189 183.184L226.879 169.883L223.495 174.962L221.822 176.402C223.768 172.861 225.903 168.976 226.242 168.386C226.251 168.372 226.277 168.337 226.281 168.327C226.304 168.28 226.288 168.307 226.242 168.386C225.761 169.191 219.726 176.791 217.151 180.026C217.099 179.975 217.05 179.925 217 179.873C219.108 176.516 223.78 169.059 223.409 169.524C223.094 169.92 219.701 173.966 217.431 176.671L219.46 170.961L214.809 177.745C214.642 177.586 214.476 177.426 214.308 177.27L216.109 170.961L211.744 174.966C211.335 174.611 210.928 174.251 210.521 173.909L211.563 169.285L208.246 172.062C208.014 171.88 207.784 171.719 207.55 171.539C233.669 227.704 297.96 487.963 260.259 629.001C260.259 629.001 222.81 575.289 182.604 604.016C182.604 604.016 303.928 460.866 192.531 164.035L186.884 162.901L190.182 172.353C189.721 172.765 189.256 173.174 188.81 173.59L183.88 167.434L186.303 176.025C185.934 176.4 185.594 176.785 185.237 177.165L179.732 167.434L182.646 180.059C182.422 180.323 182.193 180.584 181.976 180.848C179.559 174.572 176.009 165.573 176.221 167.434C176.407 169.07 178.465 176.898 180.152 183.151C179.706 183.733 179.27 184.317 178.848 184.904C178.583 184.413 178.327 183.93 178.079 183.459C177.236 181.164 176.516 179.428 176.212 179.247C175.814 179.012 176.794 181.021 178.079 183.459C178.274 183.991 178.476 184.558 178.683 185.138C178.263 185.726 177.834 186.311 177.436 186.904L177.427 186.908L171.886 181.516L167.924 175.988L172.591 185.731L174.557 191.502C174.557 191.502 170.054 187.037 168.467 184.882C168.076 184.076 167.846 183.654 167.924 183.967C167.973 184.164 168.178 184.49 168.467 184.882C169.667 187.365 172.392 193.543 172.392 193.543L163.456 187.797L170.871 198.656C170.691 199.049 170.51 199.441 170.337 199.835L158.032 193.543L167.909 205.836C167.751 206.267 167.613 206.698 167.46 207.127C165.061 203.148 153.564 192.266 153.564 192.266C153.564 192.266 160.777 201.107 166.891 208.755C166.751 209.171 166.602 209.587 166.466 210.003L158.35 201.043L165.711 212.416C165.578 212.847 165.435 213.278 165.308 213.707C162.183 209.924 158.984 206.063 159.148 206.309C159.363 206.63 162.636 212.005 164.787 215.541C164.718 215.778 164.65 216.018 164.584 216.257L153.564 203.757L163.767 219.264C163.756 219.307 163.745 219.347 163.735 219.388L160.869 216.546C158.755 213.959 156.936 211.803 157.074 212.215C157.126 212.368 157.422 212.867 157.855 213.559L149.416 205.194L161.521 219.148C161.985 219.842 162.45 220.537 162.905 221.214L156.436 215.128L156.911 216.025C153.836 213.092 151.367 210.753 151.491 210.939C151.656 211.188 155.587 216.014 159.295 220.548L160.876 223.542C156.036 218.802 149.416 212.375 149.416 212.375L159.054 223.131L151.907 219.005C148.626 216.349 146.043 214.268 146.224 214.451C146.432 214.657 149.935 218.251 153.853 222.271C156.215 225.098 159.208 228.709 160.941 230.897C160.803 231.495 160.665 232.083 160.526 232.674L150.734 223.361L147.744 220.354L148.315 221.061L144.233 217.18L142.076 215.128L157.257 233.578L153.245 229.451L159.348 237.653C159.313 237.795 159.278 237.938 159.243 238.08L143.353 219.876C143.353 219.876 152.811 231.718 158.912 239.43C158.846 239.699 158.781 239.97 158.715 240.24C152.415 233.408 142.751 222.986 143.193 224.129C143.552 225.056 149.999 232.863 155.499 239.5L148.459 231.687C148.459 231.687 154.072 238.6 157.945 243.148C157.927 243.214 157.909 243.281 157.89 243.349C157.662 243.141 157.426 242.929 157.187 242.715C150.694 235.806 141.444 225.899 142.076 227.057C142.483 227.803 146.036 231.926 149.922 236.408C148.946 235.581 148.352 235.09 148.459 235.197C148.683 235.421 151.412 238.329 154.191 241.329C155.364 242.684 156.471 243.966 157.422 245.081C157.375 245.266 157.327 245.448 157.275 245.627C155.335 243.932 152.857 241.732 151.108 240.17C147.258 236.401 143.447 232.615 142.267 231.434C142.182 231.346 142.105 231.267 142.044 231.206C141.768 230.934 141.879 231.046 142.267 231.434C143.865 233.118 149.694 239.951 154.315 245.566L156.41 248.422C156.327 248.687 156.242 248.954 156.161 249.223C150.202 242.774 140.084 231.254 140.321 231.845C140.494 232.28 145.905 239.461 150.754 245.848L147.711 243.174C142.7 237.318 137.852 231.775 138.086 232.484C138.364 233.315 144.629 241.793 149.858 248.787L150.557 249.901C144.898 242.601 137.582 233.359 138.079 235.036C138.596 236.778 145.75 247.726 150.808 255.344L146.531 250.814C141.776 244.704 136.971 238.614 136.971 238.968C136.971 239.15 138.134 241.041 139.83 243.717L138.567 242.378L142.668 250.158C138.898 244.791 135.669 240.419 136.172 242.218C136.93 244.927 144.66 256.882 149.407 264.295C149.213 264.614 149.022 264.938 148.825 265.255C144.506 259.96 138.751 252.83 137.099 250.446C136.742 249.801 136.571 249.518 136.652 249.72C136.702 249.847 136.864 250.103 137.099 250.446C138.569 253.083 143.199 261.815 146.719 268.477C146.319 269.052 145.911 269.613 145.502 270.171L131.827 254.188L143.62 272.637C143.274 273.074 142.917 273.469 142.565 273.893L131.865 257.74L141.008 275.744C140.885 275.885 140.767 276.04 140.645 276.178L132.583 263.724C132.583 263.724 136.919 272.015 139.644 277.254C139.577 277.327 139.509 277.397 139.441 277.469C136.529 272.567 131.946 264.942 131.865 265.52C131.784 266.08 135.242 274.201 137.538 279.509C137.329 279.723 137.123 279.909 136.913 280.119L123.248 259.415L135.352 281.642C135.21 281.776 135.069 281.922 134.929 282.054L126.959 270.667L133.253 283.588C132.653 284.13 132.048 284.688 131.46 285.192C128.069 278.534 123.691 269.798 122.465 266.746C122.274 265.923 122.152 265.514 122.132 265.68C122.117 265.803 122.239 266.181 122.465 266.746C123.277 270.219 125.383 281.202 126.845 288.923C126.344 289.304 125.856 289.667 125.379 290.017L115.909 267.914L119.641 293.913C117.818 295.048 116.719 295.631 116.719 295.631C110.651 288.249 106.06 282.338 102.591 277.34L112.001 261.69L100.605 274.394C100.494 274.224 100.395 274.062 100.286 273.895C103.151 269.834 107.085 264.203 106.855 264.203C106.627 264.203 102.453 269.017 99.4283 272.54C99.4044 272.499 99.3823 272.46 99.3565 272.422L107.453 262.408L98.9478 271.738C98.83 271.541 98.7103 271.344 98.5962 271.151L106.376 259.296L97.5413 269.295C97.5045 269.229 97.4639 269.157 97.4271 269.089L107.214 256.303C107.214 256.303 100.702 263.386 96.6778 267.647C96.6079 267.509 96.5416 267.372 96.4735 267.236C100.791 262.159 108.411 253.431 108.411 253.431L95.9359 266.107C95.9064 266.045 95.8751 265.978 95.8457 265.916C99.1411 262.144 104.837 255.585 104.581 255.585C104.37 255.585 99.2681 260.194 95.054 264.034C94.9159 263.682 94.7779 263.33 94.6527 262.986C96.4182 259.48 101.774 254.414 101.774 254.414L93.2572 257.812C92.7251 254.757 92.6847 251.746 92.9185 248.392C93.1707 244.776 93.6493 241.27 94.3066 237.863L105.419 233.915L94.8387 235.29C95.7408 231.271 96.9098 227.398 98.309 223.673L109.042 222.573L98.9736 221.977C100.211 218.876 101.597 215.87 103.127 212.974L110.058 214.432L103.69 211.944C103.782 211.777 103.874 211.607 103.966 211.44L110.058 211.379L104.631 210.237C108.567 203.332 112.544 198.021 117.651 192.316L122.671 192.007L119.245 190.362C120.668 188.805 122.119 187.291 123.594 185.823L129.536 185.936L124.818 184.624C129.575 180.013 134.544 175.852 139.495 172.136L143.646 172.574L141.074 170.964C144.274 168.618 147.457 166.453 150.555 164.473H154.464L152.805 163.059C161.883 157.437 170.072 153.417 175.746 150.883C173.966 150.977 172.222 151.082 170.532 151.202L172.311 149.224L173.268 142.234L167.285 150.373V144.184L164.012 151.741C163.52 151.789 163.05 151.843 162.568 151.894L166.005 137.947C166.005 137.947 162.437 147.32 160.578 152.102C160.383 152.124 160.199 152.148 160.007 152.17C160.841 147.965 162.344 140.315 162.178 140.65C162.014 140.978 159.757 148.366 158.547 152.349C158.437 152.362 158.325 152.375 158.216 152.39L160.827 137.385C160.827 137.385 158.268 147.764 156.96 152.546C156.782 152.57 156.611 152.596 156.436 152.62C157.095 146.911 158.987 132.489 158.8 132.769C158.604 133.063 155.138 148.931 154.269 152.92C154.228 152.925 154.184 152.931 154.142 152.937L155.423 136.597C155.423 136.597 152.895 147.147 151.246 153.389C151.172 153.402 151.093 153.413 151.018 153.426L151.01 153.415V147.963C151.759 142.33 152.527 136.494 152.159 137.048C151.739 137.676 149.537 145.871 147.903 151.795L146.704 154.194V152.563C147.564 146.156 149.007 136.258 149.007 136.258C149.007 136.258 146.594 145.707 144.727 152.544L145.266 145.585L143.994 148.427C144.738 143.201 145.469 138.188 145.294 138.643C145.073 139.218 142.46 149.08 140.638 155.537C140.279 155.623 139.927 155.715 139.576 155.806C140.503 149.95 142.03 141.326 142.03 141.326C142.03 141.326 140.546 147.071 139.044 152.721V143.053C139.345 140.74 139.46 139.299 139.215 139.637C138.697 140.348 135.496 149.859 132.806 157.785C132.175 157.991 131.516 158.187 130.908 158.4V158.398V153.006L126.856 159.945L128.673 149.224L123.802 161.254L124.525 147.593L121.047 162.011L122.45 147.593L117.185 161.785L118.463 150.452L114.473 164.538L116.867 142.153L110.165 165.455C110.165 165.455 110.804 153.165 110.962 152.688C111.123 152.207 106.496 168.167 106.496 168.167C106.496 168.167 106.908 150.106 107.094 147.053C107.131 146.734 107.146 146.569 107.133 146.622C107.122 146.668 107.109 146.823 107.094 147.053C106.831 149.39 105.362 160.807 104.419 168.084L103.782 161.625L103.495 162.523V145.166L99.8002 174.097L100.555 148.436L97.7696 174.903L97.2449 170.775C97.2154 163.707 97.1915 154.54 97.2485 152.135C97.2817 151.793 97.2982 151.576 97.2872 151.541C97.2706 151.493 97.2578 151.71 97.2485 152.135C96.9558 155.062 95.1148 168.322 93.8887 177.05L92.7841 161.625L89.3082 186.759L87.828 171.2L85.5801 189.915L84.6357 162.901L80.4879 193.78V164.473L75.2501 197.154L73.7865 183.648L72.5309 198.717H72.5291L68.9998 184.925L67.2325 201.454C66.1573 201.971 65.0748 202.422 63.9941 202.905C64.714 193.441 65.9124 177.66 65.9124 177.201C65.9124 176.787 63.0809 192.613 61.0135 204.23C60.6931 204.363 60.3765 204.472 60.058 204.601L62.3979 181.452L57.8248 205.466C57.2412 205.691 56.6558 205.932 56.074 206.146L56.7607 182.595L53.0511 207.21C52.7731 207.306 52.4951 207.396 52.2171 207.49L53.1652 187.337L50.1735 208.179C49.6433 208.348 49.1168 208.521 48.5902 208.681V198.94L47.3697 209.04C47.2021 209.09 47.0401 209.134 46.8744 209.184C47.4525 201.14 48.1318 191.261 47.9367 191.749C47.7526 192.208 46.3331 201.575 45.1217 209.698C44.6063 209.843 44.0687 210.016 43.5624 210.154L44.748 191.948L38.008 211.569L42.513 188.436L33.3521 211.418L39.641 183.648L28.0278 211.48C29.8081 203.693 32.5457 191.62 32.3027 192.027C31.9915 192.545 27.1165 209.444 25.8057 213.998C25.791 214.001 25.7744 214.003 25.7597 214.005C26.8035 209.782 30.4396 195.018 30.029 195.738C29.7032 196.305 26.9601 207.158 25.2258 214.092C25.027 214.123 24.8318 214.154 24.6403 214.184C25.3012 209.753 26.2328 203.579 26.9563 198.945C27.6265 195.393 28.1217 192.631 28.0609 192.506C28.0057 192.392 27.551 195.148 26.9563 198.945C25.9198 204.444 24.4599 211.825 23.9739 214.285C23.9463 214.289 23.9186 214.292 23.891 214.298L25.9604 193.942L23.4253 209.617L22.6373 214.48C22.2231 214.539 21.8199 214.594 21.448 214.644C21.691 211.32 21.9709 207.831 22.0813 206.661C22.1108 206.472 22.131 206.324 22.131 206.271C22.131 206.182 22.1126 206.337 22.0813 206.661C21.8991 207.864 21.1811 211.539 20.5128 214.765C20.2495 214.797 19.9825 214.832 19.7505 214.859C20.093 211.688 20.4667 208.335 20.336 208.665C20.22 208.952 19.4726 211.943 18.7251 214.977C17.7531 215.084 17.2229 215.128 17.2229 215.128C14.7982 197.308 16.4975 182.663 20.2145 170.778L31.106 163.061L21.9672 165.722C24.8263 158.29 28.4549 152.073 32.2346 146.966L47.1414 142.234H37.568L44.2693 140.079H37.9749C46.2319 131.262 53.6678 127.467 53.6678 127.467C54.0599 127.276 54.4502 127.099 54.8423 126.913H72.2695L60.2292 124.475C68.7384 120.869 77.2126 118.328 85.5286 116.632L102.186 120.928L92.7841 116.619L101.231 118.663L95.715 114.943H95.7168L105.419 117.577L100.273 114.943L112.479 116.619L107.683 113.947H107.693L123.248 116.619L130.937 115.975L135.056 104.81L129.465 115.842C129.362 115.809 129.258 115.772 129.155 115.739L135.056 100.341L126.583 114.905C126.451 114.861 126.318 114.818 126.186 114.776L132.663 99.7016L124.577 113.1L125.565 110.049C127.727 105.43 130.109 100.182 129.472 100.819C129.093 101.199 127.913 103.092 126.526 105.414L120.136 111.585L123.489 102.495L115.659 111.585L121.094 98.8859L113.122 110.874L116.87 98.8859L108.251 109.572L114.633 97.3427L105.421 108.848L108.65 100.819L102.744 108.187L108.65 95.7922L102.764 103.208C105.92 98.072 109.504 92.1553 109.048 92.5199C108.453 92.9969 101.1 102.101 97.6112 106.684C100.59 101.978 106.176 92.5052 106.176 92.5052L97.0939 106.885C96.9117 106.845 96.7312 106.806 96.549 106.765L103.304 93.1589C103.304 93.1589 98.0236 101.687 94.9454 106.408C94.7411 106.364 94.5349 106.318 94.3305 106.272C97.3719 100.457 103.795 88.7633 103.304 89.0101C102.845 89.2403 96.6134 100.193 93.2646 106.036C93.1633 106.014 93.0602 105.99 92.959 105.968C96.2249 99.4088 102.825 86.2958 102.825 86.2958C102.825 86.2958 95.2952 99.1253 91.4383 105.65C91.3518 105.631 91.2689 105.616 91.1823 105.598C94.5275 99.1234 100.853 86.7083 100.113 87.5738C99.3326 88.4834 92.5833 100.851 90.1182 105.386C90.0501 105.372 89.9839 105.359 89.9139 105.346C92.0532 100.125 98.3568 84.7029 97.5597 86.2958C96.8693 87.6787 91.2744 99.2026 88.3362 105.029C88.1981 105.001 88.06 104.974 87.9219 104.946C90.6779 98.49 96.6023 85.1799 96.6023 85.1799C96.6023 85.1799 86.5982 104.67 86.543 104.661C86.4896 104.65 94.2735 87.2533 94.2735 87.2533L89.3063 94.4885L91.6574 88.6105L81.5961 103.744L86.392 92.6801L79.1126 103.316L86.392 85.4984L74.2173 102.53L77.776 92.2014L70.8004 102.035L77.776 86.5757L69.5043 98.9853C72.6653 93.181 76.9789 85.1799 76.9789 85.1799L66.1426 101.436C65.8683 101.403 65.5921 101.37 65.3197 101.337L71.233 86.9348L69.9682 89.5312L64.2795 101.212C64.2795 101.212 64.274 101.212 64.2703 101.212C63.5412 101.129 62.8214 101.016 62.096 100.915L69.4785 83.2647L60.9712 100.764C60.7815 100.735 60.5919 100.713 60.4041 100.683L67.5638 81.9886L59.4688 100.516C59.351 100.495 59.235 100.473 59.1172 100.451C60.7704 95.1643 63.9297 84.9423 63.5743 85.1799C63.2374 85.4045 59.3473 94.6339 57.0718 100.085C56.919 100.053 56.7662 100.028 56.6153 99.9963L61.6597 82.786L55.7334 99.7992C55.6119 99.7753 55.4922 99.7458 55.3707 99.7201L59.2664 84.3807C59.2664 84.3807 56.0059 93.8568 54.0341 99.4236C53.8961 99.3923 53.7562 99.3647 53.6199 99.3334C55.1553 93.7095 57.8303 84.2223 57.8303 84.2223L52.5117 99.0645C52.4251 99.0424 52.3404 99.0185 52.2539 98.9964C53.0105 95.6339 54.3508 89.546 54.0029 90.1279C53.7046 90.6232 51.928 95.1882 50.6264 98.571C50.2545 98.4715 49.8771 98.3831 49.5089 98.28L54.8 85.4984L45.9778 97.2286H45.976L50.492 86.456L43.1427 96.2857L48.8167 83.1045L39.0666 94.7923C38.6118 94.6155 38.1664 94.4314 37.7153 94.2491L41.3974 85.9772L35.6791 93.4112C35.449 93.3136 35.2207 93.2142 34.9906 93.1147L38.7647 82.3864L32.7998 92.148C32.6912 92.0982 32.5825 92.0485 32.4739 92.0006L38.7647 79.0349L30.5868 91.126C28.2856 90.0321 26.08 88.9033 23.9812 87.7671L33.0207 74.7259L21.5272 86.4081C20.7263 85.9533 19.9549 85.5021 19.1891 85.0491L30.2278 73.8475L18.2686 84.5022C18.217 84.4709 18.1654 84.4396 18.1139 84.4083L27.1975 75.7626L16.9633 83.7067L16.8933 83.6625L27.9947 73.6891L16.4441 83.3881C16.3594 83.3366 16.2674 83.2832 16.1845 83.2316L25.7063 72.0318L26.8772 70.6562L15.7684 82.9701C15.5309 82.8209 15.3082 82.6773 15.0744 82.5282L24.4839 72.0355L13.4303 81.4785C13.4138 81.4675 13.399 81.4583 13.3825 81.4472L22.8895 72.0355L12.9443 81.1563C12.8965 81.1231 12.8523 81.0937 12.8026 81.0605L21.3725 70.6562L11.4641 80.1711C11.3629 80.103 11.2487 80.0311 11.1493 79.963L20.0967 69.9381L9.52365 78.8434C9.3414 78.7163 9.16833 78.593 8.99161 78.4677L16.0924 70.1775L6.02386 76.3224C5.88577 76.2211 5.75327 76.1217 5.61887 76.0204L20.0967 65.3897L3.10587 74.0943C1.09732 72.5106 3.05176e-05 71.5383 3.05176e-05 71.5383Z" fill="#05293D"/>
</svg>
